<?xml version="1.0" encoding="utf-8"?>
<!-- Generator: Adobe Illustrator 25.0.0, SVG Export Plug-In . SVG Version: 6.00 Build 0)  -->
<svg version="1.1" id="Layer_1" focusable="false" xmlns="http://www.w3.org/2000/svg" xmlns:xlink="http://www.w3.org/1999/xlink"
	 x="0px" y="0px" viewBox="0 0 448 512" style="enable-background:new 0 0 448 512;" xml:space="preserve">
<style type="text/css">
	.st0{fill:#1B1B1B;}
</style>
<path class="st0" d="M400,32H48C21.5,32,0,53.5,0,80v352c0,26.5,21.5,48,48,48h352c26.5,0,48-21.5,48-48V80
	C448,53.5,426.5,32,400,32z M144.5,319c-35.1,0-63.5-28.4-63.5-63.5s28.4-63.5,63.5-63.5s63.5,28.4,63.5,63.5S179.6,319,144.5,319z
	 M303.5,319c-35.1,0-63.5-28.4-63.5-63.5s28.4-63.5,63.5-63.5s63.5,28.4,63.5,63.5S338.6,319,303.5,319z"/>
</svg>
