<?xml version="1.0" encoding="utf-8"?>
<!-- Generator: Adobe Illustrator 24.3.0, SVG Export Plug-In . SVG Version: 6.00 Build 0)  -->
<svg version="1.1" id="Layer_1" xmlns="http://www.w3.org/2000/svg" xmlns:xlink="http://www.w3.org/1999/xlink" x="0px" y="0px"
	 viewBox="0 0 600 600" style="enable-background:new 0 0 600 600;" xml:space="preserve">
<style type="text/css">
	.st0{fill:#FFFFFF;}
	.st1{fill:#C41230;}
	.st2{fill:#C0C2C4;}
	.st3{fill:#005288;}
	.st4{fill:#0078AE;}
	.st5{fill:#5E9732;}
</style>
<g>
	<g>

			<ellipse transform="matrix(0.7071 -0.7071 0.7071 0.7071 -124.141 300.2958)" class="st0" cx="300.4" cy="300" rx="300" ry="300"/>
		<g>
			<path class="st1" d="M482.7,192.2c-3.4,1.2-6.7,2.1-10,2.8c18.7,30.6,29.4,66.5,29.4,105c0,111.4-90.3,201.7-201.7,201.7
				c-111.4,0-201.7-90.3-201.7-201.7c0-40.1,11.7-77.5,31.9-109c-3.2-0.9-6.4-2.2-9.5-3.6C100.7,220,88.8,258.6,88.8,300
				c0,116.9,94.8,211.7,211.7,211.7c116.9,0,211.7-94.8,211.7-211.7C512.1,260.6,501.4,223.8,482.7,192.2z"/>
			<path class="st1" d="M183.2,135.9c33-23.7,73.5-37.6,117.3-37.6c48.8,0,93.6,17.4,128.5,46.3c3.9-1.1,7.8-2.1,11.7-3.1
				c-37.3-33.1-86.4-53.1-140.2-53.1c-48.2,0-92.7,16.1-128.3,43.3c1.7,0.6,3.4,1.2,5.1,1.9C179.3,134.3,181.3,135.1,183.2,135.9z"
				/>
		</g>
		<path class="st2" d="M300.4,0C134.7,0,0.4,134.3,0.4,300c0,165.7,134.3,300,300,300c165.7,0,300-134.3,300-300
			C600.4,134.3,466.1,0,300.4,0z M300.4,581.4C145,581.4,19,455.4,19,300C19,144.6,145,18.6,300.4,18.6
			c155.4,0,281.4,126,281.4,281.4C581.8,455.4,455.8,581.4,300.4,581.4z"/>
		<g>
			<path class="st3" d="M228,239.8c-4.3-2.2-8-4.7-12-8.4c-12.9-11.7-15.9-24.1-12.1-38.2c2.3-8.4,5.7-12.7,4.5-21.5
				c-0.7-5-4.2-9.1-7.8-12.5c-8.6-8.3-18.8-13.4-33.9-18.5c-9.3-3.1-36.4-11.5-48.3-22.4c-2.7,7.9,3.1,18.5,10,19.9
				c-6.1,0.6-11.3,3.8-13.7,7.2c4.6,5.3,13.8,10.9,21.4,11c-3.5,2.3-7.8,7.3-9.2,10.1c6.6,3.5,17,6.4,25,5.9
				c-3.4,2.7-6.3,6.1-8.2,9.3c5.4,2.5,16,6.1,26.1,6.8c-3.7,1.8-9,8.2-11.7,12.1c5.7,2.5,17.9,4.1,25.5,4.8
				c-5.4,2.9-11.1,8.6-14.3,13.8c5.5,2.6,15.9,5.6,24.4,5.3c-4.2,4-6.9,8.9-8.5,13.6c6.4,1.3,13.2,1.3,21,0.3
				c-4.8,6-6.7,14-7.3,19.6c6.4-0.2,14.8-1.6,20.8-5.2c-1.3,4.9-1,11.4,1.1,16.1c2.5-0.6,5.4-1.6,8.6-3.3
				C228.7,256.7,228.3,247.5,228,239.8z"/>
			<path class="st3" d="M486.5,133c-12,10.8-31.1,13.7-51.1,20.3c-15.1,5-24.5,7.9-38,18.7c-3.9,3.1-7.5,7.6-7.1,15.4
				c0.5,8.6,1.9,12.4,2.1,24.4c0.2,8.6-2.8,15.5-6.4,19.6c-3.8,4.3-8.8,8.1-13.2,10.4c-0.3,7.3-0.6,14.7-1,23.3
				c3.1,1.7,7.2,3.3,9.7,3.9c2.1-4.6,2.4-11.2,1.1-16.1c6,3.6,14.4,5,20.8,5.2c-0.7-5.7-2.6-13.6-7.3-19.6c7.8,1,14.6,1,21-0.3
				c-1.6-4.7-4.3-9.6-8.5-13.6c8.5,0.3,18.9-2.7,24.4-5.3c-3.1-5.2-8.8-10.9-14.3-13.8c7.6-0.8,20.2-2.2,25.9-4.8
				c-2.7-3.9-8.4-10.3-12.1-12.1c10.1-0.7,20.6-4.4,26.1-6.8c-1.9-3.1-4.8-6.6-8.2-9.3c9.4-0.6,18.5-2.4,25-5.9
				c-1.4-2.8-5.7-7.8-9.2-10.1C486.2,151,486.5,140.9,486.5,133z"/>
			<path class="st3" d="M401.5,154.4c-28.7-19.9-63.5-31.6-101.1-31.6c-34.2,0-66.2,9.7-93.3,26.5c7,5.5,11.2,11.2,12.2,17.2
				c0.9,5.3,1.5,11.6-1.5,20.8c-3.2,9.8-5,19.9,2.3,30.1c7.2,10.2,16.6,14.6,24.3,16.1l0,0c10.2-1.8,21.4-3.2,32.6-4.1l0,0
				c1.5-4.7,5.8-8.9,10.1-12.2c6.3-4.9,4.9-9.2,3.4-12.5c-1.2-2.6-3.4-4.7-6.7-6.4c-2.8-1.5-13.2-2.5-13,4.1
				c-1.7-2.4-3.1-5.7-2.1-9.8c1.4-5.8,10.9-7.3,13.2-7.1c-1.8-1.5-0.7-4,3.5-5.2c5-1.4,9.8-1.6,14.4-1.5c9.5,0.2,11,2.6,15.8,6.8
				c5.8,5.2,13.5,6.9,16.5,3.8c-2.2,4.9-9.1,7.6-13.5,6.8c2.2,6.8,2.9,12.8,3.7,20c0.4,3.3,1,8.8,1.9,13.2
				c12.7,1.1,25.5,2.8,36.7,4.9l0,0c4.6-1.4,9.4-4.1,13.7-9c4.1-4.7,7.8-10.7,6.3-25.7c-0.4-4.2-2.6-15.1-2.3-20.1
				C379.5,168,388,160.5,401.5,154.4z"/>
			<path class="st3" d="M283.7,186c1.8,1.3,2.8,1.5,3.4,1.4c0,0.3,0.6,0.7,0.8,0.9c0.4,0.3,0.6,0.6,0.7,1c0.8-0.3,2.9-1.2,4.8-1.9
				c2-0.7,4.7-1.5,4.7-1.5C289.6,184.1,288.3,186.7,283.7,186z"/>
		</g>
		<g>
			<g>
				<g>
					<path class="st0" d="M300.4,389.2h-1.9c-0.9-6-5.3-9.7-11.6-11.6c-4.8-1.5-11.8-3.8-26.7-8.3c-17.3-5.3-26.1-19.2-27.3-36.7
						c-1.7-24.7-4.2-68-5.1-95.6c19.5-4.8,48.2-8.6,72.5-8.6c24.2,0,53,3.8,72.5,8.6c-0.9,27.6-3.4,70.9-5.1,95.6
						c-1.2,17.5-10,31.4-27.3,36.7c-14.9,4.6-21.9,6.8-26.7,8.3c-6.3,1.9-10.7,5.6-11.6,11.6H300.4"/>
				</g>
				<path class="st4" d="M295.5,326.2l-3.5-1.8l-2.3-6l-5.2-2.3l-5.8-5.2l-3.5,3.8L270,316l-2.7,4.4l-4.2,4.4l-5.7,3l-3.9,6.6
					l-2.2,2.9l-3.8,3l-2.1-2.2l-2.2,2.2l-2.8,5.2c-1.5-3.9-2.4-6.9-2.9-13.2c-0.8-11.6-1.7-26.1-2.5-41c19.1-4.1,43.5-6.9,63.2-7
					v45.2C297.3,328.8,296.4,328.4,295.5,326.2z"/>
				<path class="st5" d="M298.2,347.9h-56.9c0.8,1.8,1.8,3.4,2.9,4.9c4.1,5.7,9.9,10,17.3,12.3c10,3.1,16.4,5.1,21.1,6.6l5.6,1.7
					c4.6,1.4,7.7,3.4,10,5.7V347.9z"/>
				<path class="st3" d="M358.3,326c1.6-1.2,3.3-2.7,5.7-3.6c0.3-5.3,0.7-11,1-16.8c-0.6,0.4-1.3,0.9-2.1,1.6
					c-2.7,2.2-6.1,4.9-12.1,4.9c-5.6,0-9.2-2.2-12.1-4c-2.4-1.5-4.3-2.6-7-2.6c-3.1,0-5.7,1.6-8.5,3.3c-3,1.8-6.4,3.9-10.6,3.9
					c-4.3,0-7.4-1.3-9.9-2.7v16c0.6,0.3,1.1,0.7,1.7,1c2.5,1.6,4.8,2.9,8.3,2.9c2.2,0,4.3-1.3,6.8-2.8c3.4-2,7.2-4.3,12.3-4.3
					c4.8,0,8.1,2,10.9,3.7c2.5,1.6,4.7,2.9,8.3,2.9C354.2,329.3,356,327.8,358.3,326z"/>
				<path class="st3" d="M312.5,362.3c-4.3,0-7.4-1.3-9.9-2.7v19.5c2.2-2.3,5.4-4.3,10-5.7l5.6-1.7c4.7-1.5,11-3.5,21.1-6.6
					c2.9-0.9,5.6-2.1,8-3.6c-3.7-0.7-6.3-2.3-8.6-3.7c-2.4-1.5-4.3-2.6-7-2.6c-3.1,0-5.7,1.6-8.5,3.3
					C320.2,360.3,316.7,362.3,312.5,362.3z"/>
				<path class="st4" d="M358.3,301.4c1.9-1.5,4.1-3.3,7.2-4c0.1-2,0.2-4.1,0.4-6.2c-19.1-4.1-43.5-6.8-63.2-7v17.1
					c0.6,0.3,1.1,0.7,1.7,1c2.5,1.6,4.8,2.9,8.3,2.9c2.2,0,4.3-1.3,6.8-2.8c3.4-2,7.2-4.3,12.3-4.3c4.8,0,8.1,2,10.9,3.7
					c2.5,1.6,4.7,2.9,8.3,2.9C354.2,304.7,356,303.3,358.3,301.4z"/>
				<path class="st4" d="M302.6,334.4V351c0.6,0.3,1.1,0.7,1.7,1c2.5,1.6,4.8,2.9,8.3,2.9c2.2,0,4.3-1.3,6.8-2.8
					c3.4-2,7.2-4.3,12.3-4.3c4.8,0,8.1,2,10.9,3.7c2.5,1.6,4.7,2.9,8.3,2.9c2.7,0,4.4-1,6.2-2.3c3.6-5.4,5.8-12.1,6.3-19.9
					c0-0.3,0-0.7,0.1-1c-0.2,0.1-0.3,0.2-0.5,0.4c-2.7,2.2-6.1,4.9-12.1,4.9c-5.6,0-9.2-2.2-12.1-4c-2.4-1.5-4.3-2.6-7-2.6
					c-3.1,0-5.7,1.6-8.5,3.3c-3,1.8-6.4,3.8-10.6,3.8C308.3,337.1,305.1,335.8,302.6,334.4z"/>
			</g>
			<g>
				<path class="st3" d="M234.7,286.9c-0.9-16.6-1.7-33.3-2.2-46.5c20.2-4.6,46.9-7.6,67.8-7.6c21,0,47.7,3,67.9,7.6
					c-0.5,13.2-1.3,29.9-2.2,46.5c-19-4-44.1-7-65.7-7C278.9,279.9,253.7,282.9,234.7,286.9z"/>
				<polygon class="st0" points="248,251.3 248.7,247.8 245.4,246.3 249,245.9 249.4,242.2 250.9,245.6 254.4,244.9 251.7,247.3
					253.5,250.5 250.4,248.6 				"/>
				<polygon class="st0" points="270.1,248.4 267,246.4 264.5,249 265.4,245.5 262.2,243.8 265.8,243.6 266.3,240 267.7,243.4
					271.2,242.8 268.4,245.2 				"/>
				<polygon class="st0" points="286.7,247.1 283.8,245 281.1,247.5 282.2,244 279,242.2 282.6,242.1 283.4,238.5 284.5,242
					288.1,241.6 285.2,243.8 				"/>
				<polygon class="st0" points="303.3,246.8 300.5,244.5 297.7,246.8 299,243.3 295.9,241.3 299.5,241.5 300.5,238 301.4,241.5
					305,241.3 302,243.3 				"/>
				<polygon class="st0" points="350.6,248.7 347.4,250.5 349.2,247.3 346.5,244.9 350.1,245.6 351.6,242.3 351.9,245.9
					355.5,246.3 352.2,247.8 353,251.4 				"/>
				<polygon class="st0" points="332.5,245.2 329.7,242.8 333.3,243.4 334.6,240 335.1,243.6 338.8,243.8 335.5,245.5 336.4,249
					333.9,246.4 330.8,248.4 				"/>
				<polygon class="st0" points="315.8,243.8 312.8,241.6 316.5,242 317.6,238.6 318.3,242.1 322,242.2 318.8,244 319.9,247.5
					317.2,245 314.3,247.1 				"/>
				<polygon class="st0" points="250.4,278.2 251.2,274.6 247.8,273.1 251.5,272.8 251.9,269.1 253.3,272.5 256.9,271.8
					254.2,274.2 255.9,277.4 252.8,275.5 				"/>
				<polygon class="st0" points="271.9,275.5 268.9,273.5 266.3,276.1 267.2,272.5 264,270.9 267.6,270.7 268.2,267.1 269.5,270.5
					273.1,269.9 270.3,272.2 				"/>
				<polygon class="st0" points="287.9,274.3 284.9,272.2 282.3,274.7 283.4,271.2 280.2,269.3 283.8,269.3 284.6,265.7
					285.7,269.2 289.3,268.8 286.4,271 				"/>
				<polygon class="st0" points="303.8,274 301,271.7 298.2,274 299.5,270.6 296.5,268.6 300.1,268.8 301,265.3 302,268.8
					305.6,268.6 302.5,270.6 				"/>
				<polygon class="st0" points="349.2,275.7 346.1,277.6 347.9,274.4 345.2,271.9 348.8,272.7 350.2,269.3 350.6,273 354.2,273.3
					350.9,274.8 351.7,278.4 				"/>
				<polygon class="st0" points="331.8,272.4 329,270 332.6,270.6 333.9,267.2 334.4,270.8 338.1,271 334.8,272.7 335.7,276.2
					333.2,273.6 330.1,275.6 				"/>
				<polygon class="st0" points="315.7,271.1 312.8,268.9 316.4,269.3 317.5,265.8 318.2,269.4 321.9,269.4 318.7,271.2
					319.8,274.7 317.1,272.3 314.2,274.4 				"/>
				<polygon class="st0" points="258.3,262.3 259.2,258.8 255.9,257.2 259.5,256.9 260,253.3 261.4,256.7 264.9,256 262.2,258.4
					263.9,261.6 260.8,259.7 				"/>
				<polygon class="st0" points="242.4,264.9 243.2,261.3 239.8,259.8 243.4,259.4 243.8,255.8 245.3,259.1 248.8,258.3
					246.2,260.8 248,264 244.8,262.1 				"/>
				<polygon class="st0" points="279.8,260.1 276.8,258 274.2,260.6 275.2,257.1 272,255.3 275.6,255.2 276.3,251.6 277.5,255
					281.1,254.6 278.2,256.8 				"/>
				<polygon class="st0" points="295.7,259.4 292.8,257.1 290.1,259.5 291.3,256.1 288.1,254.2 291.8,254.2 292.6,250.7
					293.7,254.2 297.3,253.9 294.3,256 				"/>
				<polygon class="st0" points="311.6,259.6 308.9,257.2 306,259.4 307.4,256 304.4,253.9 308,254.2 309.1,250.7 309.9,254.3
					313.5,254.2 310.4,256.1 				"/>
				<polygon class="st0" points="356.9,262.3 353.7,264 355.6,260.9 352.9,258.4 356.4,259.2 358,255.9 358.3,259.5 361.9,260
					358.5,261.4 359.2,265 				"/>
				<polygon class="st0" points="339.5,258.5 336.7,256.1 340.3,256.8 341.7,253.4 342.2,257 345.8,257.3 342.5,258.9 343.4,262.5
					340.9,259.8 337.8,261.7 				"/>
				<polygon class="st0" points="323.4,256.9 320.6,254.6 324.2,255.1 325.4,251.7 326.1,255.3 329.7,255.4 326.5,257.1
					327.5,260.7 324.9,258.1 321.9,260.2 				"/>
			</g>
		</g>
		<path class="st3" d="M491.2,324.6l-14.7,4.5l3.3,1.4l-5.1,3.3c0.6-3,1.1-6,1.5-9.1l8.1-6.7l0.2,3.6l9.1-12.4l-14,6.4l3.5,0.9
			l-6.4,5.4c0.5-3.7,0.8-7.4,1-11.2l7.9-8.8l0.7,3.5l7.3-13.5l-13,8.2l3.6,0.4l-6.3,6.8c0.1-2.3,0.2-4.7,0.2-7
			c0-17.7-2.6-34.8-7.4-50.9c-8,0.7-16.1-1.8-19.9-2.6c10.3,6,13.9,12.6,15.4,20c-8.2,1.9-19.2-0.9-25.2-5.6
			c5.9,5.2,9.6,13.2,9.9,21.6c-8.5,0.4-16.3-3.6-22.1-9.3c3.7,4.1,8.4,14.5,7.3,21.9c-7.1-0.8-15.4-5.4-19.9-10.9
			c3.7,8.3,5.5,15,5.1,22.4c-7.1-1.3-12.4-3.3-18.7-9.3c3,7.6,4.2,15.2,3.5,21.4c-8.1-2.9-13.5-6.1-18.1-13.8
			c2.4,6.7,4,15.6,2.3,20.8c-6.9-2.1-11.4-6.2-15-13.2c3.5,7.5,3.1,16.1,1.9,20.6c-2.9-0.6-6.6-2.6-8.7-4.8
			c-0.1,1.3-0.2,2.7-0.3,3.9c-0.3,5-1.3,9.8-3,14.1c0.6,0.6,1.9,2.2,2,2.3c3.6,3.9,8.6,7.6,12.5,8.8c-1.7,0.2-4,1.7-6.3,2
			c2.6,2.9,7.8,3.6,11.1,6.9c-2.5,0.3-3.1,2.1-6.2,1.8c5.8,4.5,11.2,4.7,14.2,5c1.2,0.1,5.1,0.5,7.6,0.1c3.5-0.5,7.2,1.2,8.6,2
			c2.2,1.3,2,4.3,1.6,5.8c-0.3,0.9-0.7,2-2.3,2.8c-0.9,0.3-1.5,0.3-0.6-0.4c0.9-0.6,1.6-4.4-0.3-5.9c-1.4-1.1-3.5-1.9-5.8-1.8
			c-2.6,0.1-6.7,0.4-8.6,0.2c-1.8-0.2-2.9,2.2-3.2,3.2c-0.6,2.3-1.4,5.3-4.8,3.8c-4.2-2.4-10.1-2.2-17-5c1,2.1,0.6,3.9,1.6,6.3
			c-6.1-1.5-7.6-4.6-13.4-6.6c1,2.1,0.7,3.8,2,5.8c-4.9-0.9-9.5-5.3-16.3-7.1c-0.2,0.1-0.4,0.1-0.6,0.2c-2.5,0.8-4.7,1.5-6.8,2.1
			c4.8,5.5,8.8,12.2,10.7,20.3c0,0-3.4,0.1-8.4-1.7c1.4,4.4,2.3,9.2,2.4,14.2c0,0-3.8-0.7-9-3.9c0.5,4.8,0.3,9.8-0.7,14.9
			c0,0-4.4-1.8-9.6-7.1c-0.6,5-1.8,10-4,15c0,0-4-2.7-8.1-9.1c-1.7,5-4.1,9.9-7.4,14.5c0,0-4.4-4.6-7.4-13.9c-4,6-7.7,8.5-7.7,8.5
			c-2.1-5-3.4-10-4-15c-5.2,5.3-9.6,7.1-9.6,7.1c-1-5.1-1.2-10.1-0.7-14.9c-5.2,3.2-9.1,3.9-9.1,3.9c0.1-5.1,1-9.8,2.4-14.2
			c-5,1.7-8.4,1.7-8.4,1.7c1.9-8.3,7.3-16.8,10.9-20.6c0,0,0,0,0,0c-1.8-0.5-3.7-1.1-5.8-1.8c-0.2-0.1-0.4-0.1-0.6-0.2
			c-6.8,1.8-11.4,6.2-16.3,7.1c1.3-2,1-3.6,2-5.8c-5.8,2-7.4,5.1-13.4,6.6c1-2.3,0.6-4.2,1.6-6.3c-5.6,2.8-13.4,4.7-16.8,5.4
			c-3.8,0.8-4-4.8-5.2-6.1c-0.5-0.5-3.6-0.8-4.8-0.6c-1.9,0.3-5.5,0.2-8.3,0.1c-2.7-0.1-4.6,0.8-6.1,1.8c-2,1.5-1,5.4-0.2,6
			c0.9,0.7,0.4,0.6-0.6,0.4c-1.6-0.8-2-1.9-2.3-2.8c-0.4-1.5-0.6-4.5,1.6-5.8c1.4-0.8,5.1-2.6,8.6-2c2.5,0.4,6.4,0,7.6-0.1
			c1.2-0.1,10-1.7,15.9-6.3c-3.1,0.3-3.7-1.5-6.2-1.8c3.3-3.3,8.5-4,11.1-6.9c-2.3-0.3-4.4-2.1-6-2.4c5.1-2.9,8.6-4.5,12.2-8.4
			c0.1-0.1,1.4-1.6,2-2.2c-1.7-4.3-2.7-9.1-3-14.2c-0.1-1.2-0.2-2.5-0.3-3.8c-1.3,1.4-3.9,2.8-8.1,4.3c-2-4.8-1-13.7,1.5-20.6
			c-3.6,7-7.6,11.6-14.5,13.7c-1.7-5.2-0.7-14.2,1.7-20.9c-4.6,7.7-9.5,11.5-17.6,14.4c-0.7-6.3,0-14.5,3-22.1
			c-6.3,6-11.6,8-18.7,9.3c-0.4-7.4,1.4-14.1,5.1-22.4c-4.5,5.5-13.9,9.3-21,10.1c0.5-6.4,5-15.2,7.7-20.4
			c-6.7,4.8-13.8,8.2-21.5,8.6c1-7.3,4.2-15.2,9.9-21.6c-6.6,4.9-16.7,7.6-24.3,6.5c1.9-8,6.8-15.8,13.4-20
			c-3.9,0.8-10.9,2.4-18.9,1.6c-4.7,15.9-7.3,32.7-7.4,50.1c-4-3.2-6.8-4-9.6-6.7c0.5,3.8,1,5.8,1.4,10.5c0.8,8.4,3.9,13.2,9.2,16.2
			c0.3,2.4,0.6,4.8,0.9,7.1c-3.9-2.5-9.1-4-16-4c4.2,13.7,10.2,14.7,18.2,16c0.3,1.3,0.6,2.5,0.9,3.7c-4.3-1.1-9.4-1.1-15.3,0.5
			c4,6.3,9.6,10.1,18.6,11.4c0,0.1,0,0.1,0,0.1c-5.5-0.5-11.5,0.4-16.2,2.8c6.8,5.8,13.5,8.1,19.8,7.4c0.3,0.8,0.7,1.7,1,2.5
			c-5,1.3-9.5,4-12,6.4c5.3,1.7,10.7,2.6,15.6,2c0.1,0.1,0.1,0.2,0.2,0.4c-2.9,2.2-5.4,5.8-6.9,11.3c3.8-1,7.6-1.2,11.5-2.3
			c0.8,1.4,1.6,2.8,2.4,4.2c-2,3.9-2.7,8.7-1.5,14.1c3.2-0.8,5.9-2,8.1-3.6c0.8,1.1,1.5,2.2,2.3,3.3c-0.8,6.2,0.6,12.4,4.3,16.6
			c1.5-1.7,2.7-3.3,3.7-4.9c8-12.2,3.2-21,3.3-28.9c0.1-0.2,0.1-0.3,0.2-0.5c0.7,9.4,8.9,18.7-0.8,30.1c-0.2,0.2-0.4,0.4-0.5,0.6
			c32.5,37.8,80.7,61.7,134.5,61.7c76.3,0,141.4-48.2,166.4-115.9l8.1-3.5l-0.6,3.5l11.6-10l-15,3.1l3.2,1.7l-6.2,2.5
			c1.1-3.1,2.1-6.3,3-9.5l8.8-4.9l-0.3,3.6l10.7-11.1l-14.7,4.5l3.3,1.4l-7.1,3.9c0.9-3.5,1.8-7,2.5-10.5l6.7-4.3l-0.3,3.6
			L491.2,324.6z"/>
		<path class="st0" d="M207,389.2c14.4,10.9,22.6,26,24.7,38.1c-1.8-1.3-5.2-2.7-7.3-2.3c-1.9-12.8-8.6-23.2-19.1-31.6
			C205.8,391.4,206.4,390.1,207,389.2z"/>
		<g>
			<path class="st0" d="M196,400.5c3.4,1.3,5.2,0.8,6-0.4c1.8-2.6,1-6-0.2-6.7c0.3,1,0.2,2.2,0,3.4c-0.2,1-0.7,2.7-2.6,2.5
				c-1-0.1-2.9-0.6-4-1.4c-0.8-0.5-0.8-1.9-0.3-3c0.2-0.6,0.5-1.4,1.2-2c-1.2,0.3-1.9,0.9-2.8,1.6c-0.9,0.7-2.3,0.9-3.1,0
				c-1-1.1-1.6-1.9-1.9-2.6c-0.8-1.9,1.6-3.2,3-4c-2.4,0-2.8,0.9-4.8,0.6c-2-0.3-2.5-3.5-2.4-4.5c0-0.8,0.9-1.5,2.1-1.8
				c1.1-0.2,2.4-0.2,3.1-0.1c-0.1-0.5-0.2-1.1-0.2-1.7c-2-0.5-5.8,0.2-6.5,1.3c-0.9,1.4-0.7,2.1,0,4.5c0.7,2.4,1.3,3.2,2.8,3.4
				c0.4,0.1,1.2,0.2,2.1-0.2c-0.5,0.3-0.8,0.6-1,1.2c-0.3,0.6-0.7,1.7,1.2,3.9c1.6,2,3.2,2.7,4.5,2c0.8-0.4,1-0.9,1.4-1.3
				c-0.2,0.5-0.4,1.1-0.5,1.6C192.7,399,194.1,399.8,196,400.5z"/>
			<g>
				<path class="st0" d="M193.4,385.5c1-1.2,3.4-1.4,4.7-0.5c-0.9,1.7-1,4.6-0.5,6C194.2,390.4,193.6,387.2,193.4,385.5z"/>
				<path class="st0" d="M198.8,385.3c2-0.1,2.7-1.1,3.1-2.1c0.4-1,1.4-1.6,1.5-0.1c0,1.5,0,2.1-0.8,2.5
					C201.7,386,200.2,386.1,198.8,385.3z"/>
				<path class="st0" d="M199.8,388.4c-0.2,1.1-0.6,2.1-1.2,3.1c-0.5,0.7-1.2,1.2-1.8,1.7c0.9,0.7,2.2,1.1,3.3,1
					c1.1-0.1,1.1-0.2,1.1-0.6C200.9,391.7,200.2,389.2,199.8,388.4z"/>
			</g>
		</g>
		<g>
			<path class="st0" d="M401.1,383.7c0.9,1.7,1,4.6,0.5,6c3.4-0.5,4-3.8,4.2-5.5C404.9,383,402.5,382.9,401.1,383.7z"/>
			<path class="st0" d="M400.5,384c-2-0.1-2.7-1.1-3.1-2.1c-0.4-1-1.4-1.6-1.5-0.1c0,1.5,0,2.1,0.8,2.5
				C397.6,384.7,399.1,384.9,400.5,384z"/>
			<path class="st0" d="M400.7,390.2c-0.7-1-1.1-2-1.2-3.1c-0.4,0.7-1.1,3.3-1.4,5.1c-0.1,0.4,0,0.6,1.1,0.6c1.1,0.1,2.4-0.3,3.3-1
				C402,391.5,401.2,391,400.7,390.2z"/>
			<g>
				<path class="st0" d="M460.1,336.1l3.4,0.9l-51.9,41l0,0l-1.2,1c-0.1,0-0.2,0-0.2,0c0,0.6,0,1.2-0.1,1.7c0.7,0,1.7,0,2.6,0.2
					c1.1,0.3,2,1,2,1.8c0,1-0.6,4.2-2.6,4.4c-2,0.3-2.4-0.6-4.8-0.8c1.4,0.8,3.7,2.2,2.9,4.1c-0.3,0.7-1,1.5-2,2.5
					c-0.8,0.8-2.2,0.6-3.1-0.1c-0.9-0.7-1.6-1.4-2.7-1.7c0.7,0.6,0.9,1.4,1.1,2c0.4,1.2,0.4,2.5-0.4,3c-1.1,0.7-3,1.2-4,1.3
					c-1.9,0.2-2.4-1.5-2.5-2.5c-0.2-1.3-0.2-2.4,0.1-3.4c-1.2,0.6-2.2,4-0.4,6.6c0.8,1.2,2.5,1.8,6,0.5c1.8-0.7,3.3-1.4,3-3.3
					c-0.1-0.6-0.3-1.1-0.5-1.7c0.4,0.4,0.6,0.9,1.4,1.3c1.3,0.8,2.9,0.1,4.6-1.8c1.9-2.2,1.5-3.3,1.3-3.9c-0.2-0.6-0.6-0.9-1-1.2
					c0.9,0.4,1.7,0.3,2.1,0.2c1.5-0.2,2.1-1,2.9-3.3c0.8-2.4,1-3.1,0.2-4.5c-0.4-0.6-1.6-1.1-3-1.4l51.5-40.7l0.1,3.6l9.2-12.3
					L460.1,336.1z"/>
				<path class="st0" d="M432.4,348.7l36.6-46.3l1,3.5l6.1-14.1l-12.2,9.3l3.6,0.1l-33.1,42c-2.6,3.9-5.4,8.1-8,12.1l0.1,0.1
					C428.4,353.1,430.4,350.9,432.4,348.7z"/>
				<path class="st0" d="M428,362.4c3.1-2.4,6.3-5,9.4-7.4l30.5-28.2l0.4,3.6l8.2-13l-13.5,7.3l3.5,0.7L436,353.7
					C433.3,356.7,430.6,359.7,428,362.4z"/>
				<path class="st0" d="M461.9,355.8L419,377.3c-0.8,0.6-1.4,1.1-1.7,1.4c0.3,0.2,0.6,0.5,0.7,0.8c0.1,0.1,0.1,0.3,0.2,0.4
					l44.6-22.3l-0.6,3.5l11.6-10.1l-15,3.2L461.9,355.8z"/>
				<path class="st0" d="M397,401.3c-0.6-0.2-1.2-0.5-1.7-1l-7.7,15.9l0,0l-2.8,0.9l-9.1,17.4l4.4-1.3l1.6,4.3l8.6-17.7l-1-2.9
					L397,401.3z"/>
				<path class="st0" d="M427,371c2.9-1.5,6.3-3.2,9.8-4.9l28.5-18.6l-0.2,3.6l10.3-11.4l-14.6,4.9l3.3,1.3l-31.1,20.3
					C431,367.8,428.9,369.5,427,371z"/>
				<path class="st0" d="M393.5,397c-0.2-0.8-0.3-1.7-0.2-2.6l-10.2,11.1l-3,0.2l-0.3,0.3l0,0l-14.2,14.2l0.7,0l-0.1,0.1l0.2-0.1
					l3.5-0.2l0.6,3.5l11.8-15.5l2.3-0.5L393.5,397z"/>
				<path class="st0" d="M412.3,374.8c1.3-1,3-2.4,5.2-4.1l50.1-54.8l0.7,3.5l7.2-13.6l-12.9,8.4l3.6,0.4L413.7,372
					C413.2,373,412.8,374,412.3,374.8z"/>
				<path class="st0" d="M367.5,412.3l18.7-13.1c2.1-2.3,4.5-4.9,5.3-5.8l-23.3,15.4l0,0l-2.9-0.6l-1.7,1.1l-15,9.3l4.2,0.9l0.5,3.2
					l12.1-10.4L367.5,412.3z"/>
				<path class="st0" d="M352,414l7.5-4.7l7-4.8l2.4,0.5c0,0,17-10.5,21.2-13.2c0.2-0.1,0.3-0.2,0.3-0.2h0c0,0,0.1-0.1,0.1-0.1
					l-22.3,11.1l-2.8-0.9l-17.8,8.4l4,1.5L352,414z"/>
			</g>
			<g>
				<path class="st0" d="M436.2,310.9l3.5-0.6l-32.1,65c0.3,0.1,0.5,0.3,0.7,0.4c0.4,0.2,0.7,0.5,0.9,0.8l32.2-65.3l1.7,3.2
					l3.1-15.1L436.2,310.9z"/>
			</g>
			<path class="st0" d="M440.1,321.9l3.6-0.2l-20.2,30.6c-2.4,4.8-4.7,9.4-6.7,13.5c0.1-0.1,0.2-0.2,0.3-0.4l28.2-42.7l1.3,3.4
				l4.9-14.6L440.1,321.9z"/>
		</g>
		<path class="st0" d="M144.8,360.4c0.5,0,0.4,0-0.2-0.2c-5.4-3-9.1-4-16.5-3C135.1,357.7,139.9,358.7,144.8,360.4z"/>
		<path class="st0" d="M148.1,398.1c0.8-5.1,4.2-11.3,9.2-15.4c3.5-2.9,5.5-4,2.6-0.9C155.5,386.4,150.3,394,148.1,398.1z"/>
		<path class="st0" d="M159.1,412.1c-1.9-4.8-0.3-12.6,1.8-17.7c1.4-3.5,5-8.8,6.2-9.3C163.1,391.2,158.9,407.4,159.1,412.1z"/>
		<path class="st0" d="M143,344.7c-0.4-1.8-2.2-3-4-2.6c-1.8,0.4-3,2.1-2.6,4c0.4,1.8,2.1,3,4,2.6
			C142.2,348.3,143.4,346.5,143,344.7z"/>
		<path class="st0" d="M172.4,349.3c0.1-5.1-0.7-10.3-0.1-16.2c-10.1,7.3-13.5,20.2-9.3,29.2c-0.4-0.1-0.8-0.1-1.3,0
			c-1.9,0.4-3.1,2.2-2.7,4.1c0.4,1.9,2.2,3.1,4.1,2.7c1.9-0.4,3.1-2.2,2.7-4.1c-0.2-1-0.8-1.7-1.5-2.2c-1.7-8-0.3-17.9,3.9-22.1
			c-1.3,5-3.7,15.4-2.1,25.1c1.6-1.9,2.9-3.7,3.8-5.5c0.2,1.5,0.6,3.1,1.2,4.7c0.2-7.7,2.8-15.2,10.7-20.5c-5.8,7.4-9.2,16-9.9,22.5
			c4.2-5.4,13.9-7,14.6-28C181.6,340.5,175.8,344.1,172.4,349.3z"/>
		<path class="st0" d="M179.1,371c-0.4-2-2.3-3.3-4.3-2.9c-2,0.4-3.3,2.3-2.9,4.3c0.4,2,2.3,3.3,4.3,2.9
			C178.2,374.8,179.5,372.9,179.1,371z"/>
		<path class="st0" d="M177.8,382c-0.4-2-2.3-3.3-4.3-2.9c-2,0.4-3.3,2.3-2.9,4.3c0.4,2,2.3,3.3,4.3,2.9
			C176.9,385.9,178.2,384,177.8,382z"/>
		<path class="st0" d="M156.6,328c-7.4,6.2-9.5,14-8.7,20.9c-0.3,0-0.6,0-0.9,0c-1.5,0.3-2.5,1.8-2.2,3.3c0.3,1.5,1.8,2.5,3.3,2.2
			c0.4-0.1,0.7-0.2,1-0.4c0.7,2,1.6,3.8,2.7,5.4c-0.7-2.3-1.2-4.9-1.4-7.5c0-0.3,0-0.6,0-0.9c0-0.1,0-0.1-0.1-0.2
			c-0.4-5.8,0.5-11.9,3.7-16.2c-1,6.4-2.5,18.6-1.1,26.3C155.1,352.9,166.8,349.3,156.6,328z"/>
		<path class="st0" d="M186.4,375.9c-0.3-1.5-1.8-2.5-3.4-2.2c-1.5,0.3-2.5,1.8-2.2,3.4c0.3,1.5,1.8,2.5,3.4,2.2
			C185.7,379,186.7,377.5,186.4,375.9z"/>
		<path class="st0" d="M170.6,375.4c-0.3-1.4-1.7-2.3-3.1-2c-1.4,0.3-2.3,1.7-2.1,3.1c0.3,1.4,1.7,2.3,3.1,2.1
			C170,378.2,170.9,376.8,170.6,375.4z"/>
		<path class="st0" d="M134.7,339.3c-0.2-1.2-1.2-2-2.4-2c-3.7-5-9-10.3-17.8-11.2c4.8,2.3,12.1,6.8,17.2,11.3
			c-1.2,0.3-2,1.5-1.8,2.7c0.2,1.3,1.5,2.2,2.8,2C134.1,341.9,135,340.6,134.7,339.3z"/>
		<path class="st0" d="M134.8,322.5c-0.3-1.7-2-2.7-3.6-2.4c-0.1,0-0.1,0-0.2,0.1c-2-7.8-3.9-13.9-12.8-20c4.5,5.7,9.6,14,12.5,20.1
			c-1.3,0.5-2.1,2-1.8,3.4c0.3,1.7,2,2.7,3.6,2.4C134.1,325.8,135.2,324.2,134.8,322.5z"/>
		<path class="st0" d="M143.9,353.3c-0.2-1.3-1.5-2.2-2.8-2c-0.6,0.1-1.2,0.5-1.5,0.9c-7.9-6.9-13.3-7-17.4-7.2
			c2.5,0.9,11.5,3.5,17.2,7.5c-0.2,0.5-0.3,1-0.2,1.5c0.2,1.3,1.5,2.2,2.8,2C143.2,355.9,144.1,354.6,143.9,353.3z"/>
		<path class="st0" d="M150.5,363.1c-0.4-1.9-2.2-3.1-4.1-2.7c-1.9,0.4-3.1,2.2-2.7,4.1c0.4,1.9,2.2,3.1,4.1,2.7
			C149.6,366.9,150.9,365,150.5,363.1z"/>
		<path class="st0" d="M155.6,369.2c-0.2-1.3-1.5-2.2-2.8-2c-0.8,0.1-1.5,0.7-1.8,1.4c-6.8-0.9-14.3,0-20.5,3.5
			c7-1.6,14.4-3.1,20.4-3.1c0,0,0,0,0,0c-0.1,0.3-0.1,0.7-0.1,1c0.2,1.3,1.5,2.2,2.8,2C154.9,371.7,155.8,370.5,155.6,369.2z"/>
		<path class="st0" d="M162.6,373.3c-0.3-1.7-2-2.8-3.7-2.5c-1.7,0.3-2.8,2-2.5,3.7c-0.1,0-0.1,0-0.2,0c-5.1-0.2-13.5,1.1-18.7,7.3
			c5.3-3.1,13.7-6.3,18.8-7c0,0,0.1,0,0.1,0c0.4,1.6,2,2.6,3.7,2.3C161.8,376.6,162.9,375,162.6,373.3z"/>
		<g>
			<g>
				<path class="st3" d="M522.8,192.2c8.3-3.6,17.7-2,20.1,3.5c2.4,5.5-2.8,13.6-11,17.2c-8.3,3.6-17.8,2-20.2-3.5
					C509.2,203.9,514.4,195.8,522.8,192.2z M535.2,220.6c10.5-4.6,15.2-16.3,10.8-26.3c-4.4-10.1-16.2-14.4-26.6-9.9
					c-10.5,4.6-15.3,16.2-10.9,26.3C512.9,220.8,524.8,225.2,535.2,220.6z"/>
				<path class="st3" d="M520.6,247.9l-4-15.8l2.4-0.6l1.1,4.4l33.4-8.5l-1.1-4.4l2.4-0.6l6.1,23.9l1.6-0.4l0.8,3.1l-9.2,2.3
					l-0.8-3.1l4.2-1.1l-3.1-12.1l-13.7,3.5l2.4,9.3l3.9-1l0.8,3.1l-11.4,2.9l-0.9-3.1l4.1-1l-2.4-9.3l-15.3,3.9l1,3.9L520.6,247.9z"
					/>
			</g>
			<g>
				<path class="st3" d="M53.9,205.6l-1.4,4.8l21.5,6.4c6.5,1.9,9.9,5.4,10.7,10.9c0.4,2.9,0.2,5.9-0.7,8.8
					c-2.8,9.3-9.7,13.8-17.6,11.4l-23.1-6.9l-1.3,4.4l-2.4-0.7l4.8-16l2.4,0.7l-1.3,4.3l21.4,6.4c5.8,1.7,8.7,1.5,11.2-1
					c1.1-1.2,2-2.7,2.5-4.4c2.1-6.9-0.8-12.1-7.8-14.2l-21.3-6.3l-1.4,4.8l-2.5-0.7l4-13.3L53.9,205.6z"/>
				<path class="st3" d="M91.8,214.9c-0.9,2-3.2,3-5.2,2.1c-2-0.9-3-3.2-2.1-5.2c0.9-2,3.2-3,5.2-2.1
					C91.7,210.5,92.7,212.8,91.8,214.9z"/>
				<path class="st3" d="M99.3,197.8l-1.6,2.9l-9.4-5.3l1.6-2.9l3.9,2.2c3.2-1.3,4.9-2.7,6.3-5.2c1.8-3.2,1.2-6.7-1.5-8.2
					c-2.3-1.3-4.9-0.7-10.7,2.3c-6.1,3.3-7,3.6-9.3,4.1c-2.2,0.5-4.7,0-7-1.3c-5.7-3.2-7.2-9.6-3.6-15.9c1.1-2,2.4-3.5,4.3-5
					l-1.6-0.9l1.6-2.8l8.9,5l-1.6,2.8l-3.6-2c-2.6,1.4-3.9,2.5-5,4.4c-1.5,2.7-0.8,5.9,1.7,7.3c2.1,1.2,4.1,0.7,10.1-2.5
					c2.9-1.5,4.7-2.5,5.4-2.8c1.5-0.7,3.3-1.2,5.2-1.3c2.2-0.1,4.2,0.4,6.2,1.6c5.9,3.3,7.7,10,4.2,16.1c-1.7,3-3.6,4.9-6.3,6.5
					L99.3,197.8z"/>
				<path class="st3" d="M114.9,170.7c0,2.2-1.7,3.9-3.9,3.9c-2.2,0-3.9-1.7-3.9-3.9c0-2.2,1.7-3.9,3.9-3.9
					C113.2,166.8,114.9,168.6,114.9,170.7z"/>
			</g>
			<g>
				<path class="st3" d="M207.4,93.9l-25.3,13l-1.1-2.2l4-2.1L169.2,72l-4,2.1l-1.1-2.2l21.9-11.3l-0.8-1.5l2.9-1.5l4.3,8.5
					l-2.8,1.5l-2-3.8l-11.1,5.7l6.5,12.6l8.5-4.4l-1.9-3.6l2.9-1.5l5.4,10.5l-2.8,1.5l-1.9-3.7l-8.5,4.4l6.8,13.1l11.5-5.9l-2-3.9
					l2.9-1.5L207.4,93.9z"/>
				<path class="st3" d="M231.8,85.1l-16.5,5.5l-0.8-2.4l4.3-1.4L208,54l-4.3,1.4l-0.8-2.4l17.2-5.7c7-2.3,13,0.4,15.2,6.9
					c2,6.2-1.7,13.1-8.3,15.3c-1,0.3-1.6,0.5-3.2,0.7l-0.9-2.8c0.8-0.1,1.1-0.2,1.6-0.3c3.9-1.3,5.1-4.8,3.4-9.8
					c-1.8-5.3-4.8-7.4-8.9-6.1l-3.4,1.1l10.6,31.9l4.8-1.6L231.8,85.1z"/>
				<path class="st3" d="M251.3,63.3l3.4-15.8l8.1,13.8L251.3,63.3z M280.3,71.8l-2.5,0.4l-21.1-35.1l-3.6,0.6L244.5,78l-3.7,0.6
					l0.4,2.5l12.2-2.1l-0.4-2.5l-4.7,0.8l2.2-10.2l14.3-2.5l5.3,8.9l-4.1,0.7l0.4,2.5l14.4-2.5L280.3,71.8z"/>
				<path class="st3" d="M297.4,38.2l3.8,0c4.3,0,6.7,2.8,6.7,7.6c0,4.7-2.8,8-6.9,8l-3.5,0L297.4,38.2z M321.6,71.8l-2.5,0
					c-1.2,0-1.9-0.5-3.3-2.6l-8.5-13.1c5.6-1.7,8.4-5.2,8.4-10.6c0-3.2-0.9-5.7-2.9-7.7c-2.1-2.2-5-2.9-10.2-3l-17.6,0v2.5l4.5,0
					l-0.1,34.4l-4.5,0l0,2.5l16.7,0v-2.5l-4.5,0l0-15.1l1.6,0l8.9,14.1c2,3.2,2.6,3.5,6.2,3.5l7.6,0L321.6,71.8z"/>
				<path class="st3" d="M348.7,79.1l-19-3.2l0.4-2.5l5.7,1l5.6-33l-10.2-1.7l-0.8,4.9l-3.2-0.5l1.7-10l3.3,0.5l-0.3,1.7l27.9,4.7
					l0.3-1.7l3.2,0.5l-1.7,10l-3.2-0.5l0.8-4.9L349,42.7l-5.6,32.9l5.7,1L348.7,79.1z"/>
				<path class="st3" d="M404.5,98L388,91.6l0.9-2.3l4.7,1.8l9.3-24.1l-22.7,22.2L377,57.5l-9.1,23.6l4.7,1.8l-0.9,2.3l-12.9-5
					l0.9-2.3l4.7,1.8l12.5-32.1l-4.7-1.8l0.9-2.3l9.9,3.8l3.2,31l21.7-21.4l11,4.3l-0.9,2.3l-4.7-1.8l-12.5,32.1l4.7,1.8L404.5,98z"
					/>
				<path class="st3" d="M433.6,117l-24-15.3l1.4-2.1l3.8,2.4l18.5-29l-3.8-2.4l1.3-2.1l20.8,13.3l0.9-1.4l2.7,1.7l-5.1,8l-2.7-1.7
					l2.3-3.6L439.3,78l-7.6,11.9l8.1,5.1l2.2-3.4l2.8,1.7l-6.3,9.9l-2.7-1.7l2.3-3.5l-8.1-5.1l-7.9,12.4l10.9,7l2.4-3.7l2.7,1.7
					L433.6,117z"/>
				<path class="st3" d="M168.5,92.6c-6.5-8.9-18.7-10.6-27.8-4l-15,11l1.5,2l3.7-2.7l20.3,27.7c1,0.4,1.9,0.7,2.9,1.1l10-7.3
					c4.7-3.5,7.2-7.3,8.1-12.4C173,102.5,171.7,97,168.5,92.6z M160.8,118.7l-3.9,2.9l-19.4-26.4l4.1-3c5.6-4.1,14.9-1.6,20.1,5.5
					C167.2,105.1,166.9,114.2,160.8,118.7z"/>
				<path class="st3" d="M484.5,108.8l-1.7,1.9l3.5,3.2l-16.9,18.5l4.3-33.4l-8.8-8l-1.7,1.9l3.2,2.9l-0.7,3.5l-21.1,23.2l-3.7-3.3
					l-1.7,1.9l10,9.1l1.7-1.9l-3.5-3.2l17.6-19.3l-3.8,30.7c3.6-0.9,7.5-2,11.8-3.2c0.3-0.1,0.7-0.2,1-0.3l15-16.5l3.7,3.4l1.7-1.9
					L484.5,108.8z"/>
				<path class="st3" d="M524.8,152.3l-1.3,1l-17.2-22.5l1.3-1l-2-2.6l-8.1,6.2l2,2.6l3.9-3l6.3,8.2l-26.6,20.3l-1.4-1.8
					c-0.8,0.4-1.5,0.8-2.3,1.1l9.9,12.9l2-1.5l-3.5-4.6l26.6-20.3l6.2,8.2l-3.9,3l2,2.6l8.1-6.2L524.8,152.3z"/>
			</g>
			<g>
				<path class="st3" d="M350,562.8l-3.2,0.7l-2.3-10.5l3.2-0.7l0.9,4.3c3.1,1.5,5.2,1.9,8.1,1.2c3.6-0.8,5.8-3.5,5.1-6.6
					c-0.6-2.6-2.7-4.1-8.9-6.4c-6.5-2.4-7.3-2.8-9.2-4.2c-1.8-1.4-3.1-3.5-3.7-6.1c-1.4-6.4,2.4-11.7,9.5-13.3
					c2.3-0.5,4.2-0.5,6.6-0.1l-0.4-1.7l3.2-0.7l2.2,10l-3.2,0.7l-0.9-4c-2.8-1-4.5-1.3-6.7-0.8c-3,0.7-4.9,3.3-4.3,6.1
					c0.5,2.3,2.2,3.5,8.6,5.8c3.1,1.2,5,1.8,5.7,2.2c1.5,0.6,3.1,1.7,4.4,3c1.5,1.6,2.5,3.4,3,5.7c1.5,6.6-2.4,12.4-9.2,13.9
					c-3.4,0.7-6,0.6-9-0.4L350,562.8z"/>
				<path class="st3" d="M410.8,543.7l-26.5,10.4l-0.9-2.3l4.2-1.7L375,518l-4.2,1.7l-0.9-2.3l22.9-9l-0.6-1.6l3-1.2l3.5,8.9l-3,1.2
					l-1.6-4l-11.6,4.5l5.2,13.1l8.9-3.5l-1.5-3.8l3-1.2l4.3,11l-3,1.2l-1.5-3.9l-8.9,3.5l5.4,13.7l12.1-4.7l-1.6-4.1l3-1.2
					L410.8,543.7z"/>
				<path class="st3" d="M450.6,519.4c-3.4,4.2-5.7,6.4-9.6,8.8c-10.8,6.5-22.9,3.9-29-6.2c-6.1-10.1-3-22.2,7.3-28.5
					c3.3-2,5.9-3,9.6-3.5l-1.3-2.1l2.8-1.7l5.6,9.2l-2.8,1.7l-2-3.3c-4.2-0.3-6.1,0.2-8.9,1.8c-7.1,4.3-8.5,13.2-3.3,21.7
					c5,8.3,14.4,11.4,21.5,7.1c2.6-1.5,4.1-3.2,5.6-6.2l-2.4-3.9l2.9-1.7L450.6,519.4z"/>
				<path class="st3" d="M468.6,457.7l-3.7,3.4l15.2,16.6c4.6,5,5.7,9.7,3.6,14.9c-1.1,2.7-2.9,5.1-5.2,7.2
					c-7.2,6.5-15.4,6.8-20.9,0.7l-16.3-17.8l-3.4,3.1l-1.7-1.9l12.4-11.3l1.7,1.9l-3.3,3l15,16.5c4.1,4.5,6.7,5.8,10.1,4.9
					c1.5-0.5,3.1-1.3,4.4-2.5c5.3-4.8,5.5-10.8,0.6-16.2l-15-16.4l-3.7,3.4l-1.7-1.9l10.2-9.3L468.6,457.7z"/>
				<path class="st3" d="M535.8,422.8l-8,14.7l-2.2-1.2l2.2-4l-30.3-16.4l-2.2,4l-2.2-1.2l8-14.7l2.2,1.2l-2.1,3.9l30.3,16.4
					l2.1-3.9L535.8,422.8z"/>
				<path class="st3" d="M551,387l-6.8,18l-2.3-0.9l2-5.4L512.7,387l-3.7,9.7l4.6,1.7l-1.2,3.1l-9.5-3.6l1.2-3.1l1.6,0.6l10-26.5
					l-1.6-0.6l1.2-3.1l9.5,3.6l-1.2,3.1l-4.6-1.7l-3.6,9.6l31.3,11.8l2-5.4L551,387z"/>
				<path class="st3" d="M561.6,343.1l-3.2,16.4l-2.5-0.5l0.9-4.4l-16.2-3.2l-19.9,8.2l-0.7,3.7l-2.5-0.5l3.2-16.4l2.5,0.5l-0.9,4.3
					l14.5-5.8l-11.3-10.3l-1,5l-2.5-0.5l2.7-13.7l2.5,0.5l-0.8,4.2l14.2,12.9l17.7,3.5l0.9-4.5L561.6,343.1z"/>
				<path class="st3" d="M521.4,444.4l-1.5,2c-0.7,1-1.6,1.2-4.1,1.1l-15.5-1c2-5.5,0.8-9.8-3.5-13c-2.5-1.9-5.2-2.7-7.9-2.3
					c-3,0.4-5.3,2.3-8.4,6.4l-10.5,14.2l2,1.5l2.7-3.6l27.7,20.5l-2.7,3.6l2,1.5l10-13.4l-2-1.5l-2.7,3.6l-12.1-9l1-1.3l16.6,1.2
					c3.8,0.3,4.4,0,6.5-2.8l4.5-6.1L521.4,444.4z M479.9,443.9l2.2-3c2.5-3.4,6.2-3.7,10-0.9c3.8,2.8,4.7,7,2.3,10.3l-2.1,2.8
					L479.9,443.9z"/>
			</g>
			<g>
				<path class="st3" d="M47.6,380l-4-16.3l2.4-0.6l1.1,4.4l15.3-3.7l-4.6-18.9l-15.3,3.7l1.1,4.4l-2.4,0.6l-4-16.3l2.4-0.6l1.1,4.4
					l33.5-8.2l-1.1-4.4l2.4-0.6l4,16.3l-2.4,0.6l-1.1-4.4l-14.8,3.6l4.6,18.9l14.8-3.6l-1.1-4.4l2.4-0.6l4,16.3l-2.4,0.6l-1.1-4.4
					L49,375l1.1,4.4L47.6,380z"/>
				<path class="st3" d="M70.4,389.1c8.2-3.7,17.7-2.2,20.2,3.2c2.5,5.5-2.6,13.7-10.8,17.4c-8.3,3.8-17.8,2.2-20.3-3.3
					C57.1,401.1,62.1,392.9,70.4,389.1z M83.3,417.4c10.4-4.7,15-16.5,10.4-26.5c-4.6-10-16.4-14.2-26.8-9.5
					c-10.4,4.7-15,16.4-10.5,26.5C61,417.9,72.9,422.2,83.3,417.4z"/>
				<path class="st3" d="M98.5,474.2l-10.4-14.4l2-1.5l3,4.1l20.9-15.2l-31.1,6.3l14.5-28.3l-20.5,14.9l3,4.1l-2,1.5l-8.1-11.2
					l2-1.5l3,4.1l27.9-20.2l-2.9-4.1l2-1.5l6.2,8.6l-14.2,27.8l29.8-6.2l7,9.6l-2,1.5l-2.9-4.1l-27.9,20.2l3,4.1L98.5,474.2z"/>
				<path class="st3" d="M129.6,504.8l-20.9-19.3l1.7-1.8l3.3,3.1l23.3-25.3l-3.3-3.1l1.7-1.9l18.1,16.7l1.1-1.2l2.4,2.2l-6.4,7
					l-2.3-2.1l2.9-3.2l-9.1-8.4l-9.6,10.4l7,6.5l2.8-3l2.4,2.1l-8,8.7l-2.4-2.1l2.8-3.1l-7-6.5l-10,10.9l9.5,8.8l3-3.3l2.4,2.2
					L129.6,504.8z"/>
				<path class="st3" d="M165.2,529.2l-23.4-15.8l1.4-2.1l3.8,2.6l19.2-28.6l-3.8-2.5l1.4-2.1l13.9,9.3l-1.4,2.1l-3.7-2.5
					l-18.7,27.7l10.6,7.1l2.5-3.7l2.7,1.8L165.2,529.2z"/>
				<path class="st3" d="M189.1,524.1l11.7-11.1l-1,16L189.1,524.1z M208.3,547.5l-2.3-1l2.3-40.9l-3.3-1.5l-29.9,28.4l-3.4-1.5
					l-1,2.3l11.3,5.1l1-2.3l-4.4-2l7.5-7.2l13.2,6l-0.6,10.4l-3.8-1.7l-1,2.3l13.3,6L208.3,547.5z"/>
				<path class="st3" d="M249.7,561.6l-4.1-1l-13.4-33.3l-6.1,25.4l4.6,1.1l-0.6,2.4l-13.1-3.2l0.6-2.4l4.8,1.2l7.3-30.5l-1.2-3.4
					l-4.2-1l0.6-2.4l11.6,2.8l12.4,31.3l5.8-24.4l-4.6-1.1l0.6-2.4l13.1,3.1l-0.6,2.4l-4.9-1.2L249.7,561.6z"/>
				<path class="st3" d="M288.5,525.2l-18.6-0.7l-0.1,2.5l4.5,0.2l-1.2,34.4h0l-4.5-0.2l-0.1,2.5l18.6,0.7l0,0h0.1
					c5.9,0.2,10.2-1.2,14-4.7c4.2-3.8,6.6-8.9,6.8-14.3C308.2,534.5,299.8,525.6,288.5,525.2z M299.4,545.2
					c-0.3,9.4-6.3,16.3-13.8,16l-4.8-0.2l1.2-32.8l5.1,0.2C294,528.7,299.7,536.4,299.4,545.2z"/>
			</g>
		</g>
		<path class="st0" d="M149.7,311.2c-11.4,5-16.7,19.2-10.9,29.7C144.2,333.2,154.2,331.6,149.7,311.2z M138.8,340.3
			c-1.4-5.7,2.2-21,7.3-24.2C142.9,323.5,141.5,330.4,138.8,340.3z"/>
		<path class="st0" d="M138.1,289.8c-3.7,1.5-8.8,6.6-11.2,13.3c0.9,1,1.7,2.1,2.3,3.3c1.3-4.9,4-10.6,6.8-13
			c-1.8,3.1-4.4,10-5.6,15.4c1.3,3,1.9,6.2,1.8,9.1C139.2,311.5,141.6,300.5,138.1,289.8z"/>
	</g>
</g>
</svg>
