<?xml version="1.0" encoding="utf-8"?>
<!-- Generator: Adobe Illustrator 23.0.2, SVG Export Plug-In . SVG Version: 6.00 Build 0)  -->
<svg version="1.1" id="Layer_1" xmlns="http://www.w3.org/2000/svg" xmlns:xlink="http://www.w3.org/1999/xlink" x="0px" y="0px"
	 viewBox="0 0 866 252" style="enable-background:new 0 0 866 252;" xml:space="preserve">
<style type="text/css">
	.st0{fill:#FFFFFF;}
	.st1{fill:#C41230;}
	.st2{fill:#C0C2C4;}
	.st3{fill:#005288;}
	.st4{fill:#0078AE;}
	.st5{fill:#5E9732;}
</style>
<g>
	<g>
		<ellipse transform="matrix(0.9248 -0.3804 0.3804 0.9248 -38.1558 56.9551)" class="st0" cx="125" cy="125" rx="125" ry="125"/>
		<g>
			<path class="st1" d="M200.95,80.09c-1.4,0.48-2.8,0.87-4.16,1.16c7.78,12.74,12.27,27.72,12.27,43.74
				c0,46.41-37.62,84.04-84.04,84.04c-46.41,0-84.04-37.63-84.04-84.04c0-16.72,4.89-32.31,13.31-45.4
				c-1.34-0.39-2.65-0.9-3.96-1.52c-8.56,13.59-13.51,29.68-13.51,46.92c0,48.71,39.49,88.2,88.2,88.2c48.71,0,88.2-39.49,88.2-88.2
				C213.22,108.6,208.74,93.24,200.95,80.09z"/>
			<path class="st1" d="M76.16,56.61c13.77-9.85,30.64-15.66,48.86-15.66c20.35,0,39.02,7.24,53.56,19.28
				c1.64-0.47,3.24-0.89,4.87-1.31c-15.56-13.77-36.02-22.13-58.43-22.13c-20.09,0-38.62,6.72-53.45,18.04
				c0.7,0.25,1.41,0.51,2.12,0.79C74.54,55.95,75.36,56.28,76.16,56.61z"/>
		</g>
		<path class="st2" d="M125,0C55.97,0,0,55.96,0,125c0,69.04,55.97,125,125,125c69.04,0,125-55.96,125-125C250,55.96,194.04,0,125,0
			z M125,242.26C60.24,242.26,7.74,189.76,7.74,125C7.74,60.24,60.24,7.75,125,7.75c64.75,0,117.25,52.5,117.25,117.25
			C242.26,189.76,189.76,242.26,125,242.26z"/>
		<g>
			<path class="st3" d="M94.84,99.94c-1.78-0.91-3.34-1.97-5.01-3.49c-5.36-4.89-6.63-10.03-5.05-15.93
				c0.94-3.51,2.38-5.28,1.89-8.95c-0.28-2.1-1.77-3.79-3.25-5.21c-3.59-3.45-7.84-5.58-14.12-7.69c-3.88-1.3-15.16-4.81-20.14-9.31
				c-1.12,3.31,1.28,7.71,4.15,8.3c-2.54,0.26-4.71,1.58-5.72,3.02c1.91,2.22,5.74,4.53,8.9,4.59c-1.46,0.98-3.23,3.05-3.83,4.21
				c2.73,1.45,7.08,2.67,10.43,2.44c-1.41,1.13-2.63,2.56-3.42,3.87c2.27,1.03,6.67,2.53,10.87,2.85c-1.55,0.76-3.75,3.4-4.89,5.02
				c2.36,1.06,7.47,1.69,10.64,2.01c-2.27,1.2-4.64,3.58-5.95,5.73c2.3,1.1,6.62,2.33,10.15,2.22c-1.74,1.67-2.89,3.7-3.55,5.66
				c2.67,0.55,5.49,0.56,8.74,0.12c-1.98,2.5-2.77,5.81-3.05,8.18c2.65-0.08,6.17-0.68,8.65-2.17c-0.54,2.03-0.42,4.76,0.45,6.7
				c1.04-0.23,2.25-0.67,3.56-1.38C95.12,106.96,94.95,103.11,94.84,99.94z"/>
			<path class="st3" d="M202.55,55.43c-4.98,4.51-12.94,5.71-21.3,8.48c-6.3,2.08-10.21,3.29-15.84,7.79
				c-1.61,1.28-3.14,3.16-2.97,6.4c0.19,3.6,0.78,5.15,0.87,10.18c0.07,3.58-1.17,6.47-2.67,8.17c-1.59,1.8-3.66,3.37-5.51,4.34
				c-0.11,3.06-0.25,6.13-0.42,9.7c1.31,0.71,2.99,1.38,4.03,1.61c0.87-1.93,0.99-4.67,0.45-6.7c2.48,1.49,6,2.09,8.65,2.17
				c-0.28-2.37-1.07-5.68-3.05-8.18c3.25,0.44,6.07,0.42,8.74-0.12c-0.66-1.96-1.81-4-3.55-5.66c3.53,0.11,7.86-1.11,10.16-2.22
				c-1.31-2.15-3.68-4.53-5.95-5.73c3.17-0.32,8.42-0.93,10.78-1.99c-1.14-1.62-3.49-4.28-5.03-5.05c4.2-0.31,8.6-1.81,10.87-2.85
				c-0.8-1.31-2.02-2.74-3.42-3.87c3.93-0.26,7.7-0.99,10.43-2.44c-0.6-1.16-2.38-3.24-3.83-4.21
				C202.4,62.91,202.54,58.7,202.55,55.43z"/>
			<path class="st3" d="M167.12,64.33c-11.95-8.3-26.46-13.17-42.12-13.17c-14.27,0-27.59,4.05-38.89,11.05
				c2.93,2.28,4.67,4.68,5.09,7.18c0.37,2.19,0.63,4.83-0.64,8.69c-1.34,4.09-2.08,8.29,0.94,12.56c3,4.25,6.91,6.08,10.14,6.7l0,0
				c4.23-0.74,8.93-1.35,13.6-1.72l0,0c0.61-1.98,2.42-3.7,4.22-5.1c2.63-2.04,2.05-3.83,1.42-5.22c-0.48-1.08-1.42-1.97-2.77-2.67
				c-1.18-0.61-5.51-1.06-5.4,1.71c-0.7-1-1.28-2.36-0.86-4.09c0.58-2.41,4.53-3.03,5.51-2.96c-0.76-0.64-0.29-1.68,1.44-2.16
				c2.1-0.58,4.09-0.67,6.01-0.62c3.96,0.1,4.58,1.07,6.59,2.85c2.42,2.15,5.62,2.9,6.88,1.6c-0.9,2.06-3.78,3.16-5.63,2.84
				c0.9,2.85,1.22,5.33,1.54,8.32c0.15,1.36,0.43,3.65,0.8,5.52c5.31,0.44,10.63,1.17,15.27,2.06l0,0c1.93-0.56,3.92-1.69,5.71-3.76
				c1.7-1.96,3.26-4.45,2.62-10.71c-0.18-1.76-1.06-6.27-0.94-8.4C157.94,70.02,161.51,66.88,167.12,64.33z"/>
			<path class="st3" d="M118.03,77.52c0.73,0.55,1.16,0.62,1.41,0.57c0.02,0.13,0.26,0.31,0.32,0.36c0.16,0.14,0.24,0.27,0.29,0.42
				c0.33-0.14,1.21-0.5,2.02-0.79c0.82-0.29,1.94-0.62,1.94-0.62C120.5,76.72,119.97,77.78,118.03,77.52z"/>
		</g>
		<g>
			<g>
				<g>
					<path class="st0" d="M124.99,162.15h-0.79c-0.39-2.48-2.2-4.02-4.83-4.83c-2-0.62-4.9-1.56-11.11-3.46
						c-7.19-2.21-10.86-8-11.36-15.27c-0.7-10.27-1.73-28.33-2.11-39.82c8.11-2,20.1-3.56,30.19-3.56c10.1,0,22.08,1.57,30.2,3.56
						c-0.38,11.49-1.41,29.54-2.11,39.82c-0.49,7.28-4.16,13.06-11.36,15.27c-6.21,1.9-9.11,2.84-11.11,3.46
						c-2.63,0.81-4.44,2.35-4.83,4.83H124.99"/>
				</g>
				<path class="st4" d="M122.93,135.91l-1.47-0.73l-0.95-2.49l-2.16-0.94l-2.42-2.17l-1.44,1.59l-2.15,0.5l-1.14,1.82l-1.74,1.84
					l-2.36,1.25l-1.63,2.76l-0.92,1.22l-1.59,1.24l-0.88-0.93l-0.94,0.9l-1.18,2.18c-0.62-1.62-1-2.89-1.19-5.5
					c-0.35-4.83-0.7-10.89-1.04-17.1c7.97-1.72,18.11-2.86,26.35-2.93v18.82C123.7,137.01,123.32,136.84,122.93,135.91z"/>
				<path class="st5" d="M124.08,144.97h-23.69c0.35,0.73,0.75,1.41,1.21,2.06c1.71,2.39,4.14,4.17,7.22,5.11
					c4.19,1.29,6.85,2.12,8.8,2.74l2.32,0.72c1.9,0.59,3.22,1.44,4.15,2.38V144.97z"/>
				<path class="st3" d="M149.1,135.82c0.65-0.52,1.39-1.13,2.38-1.49c0.14-2.21,0.28-4.57,0.43-7.02
					c-0.26,0.17-0.54,0.39-0.87,0.66c-1.13,0.91-2.54,2.05-5.02,2.05c-2.33,0-3.84-0.92-5.05-1.67c-0.99-0.61-1.78-1.09-2.93-1.09
					c-1.28,0-2.38,0.66-3.55,1.36c-1.25,0.75-2.68,1.61-4.43,1.61c-1.79,0-3.09-0.54-4.14-1.13v6.65c0.24,0.14,0.47,0.28,0.7,0.42
					c1.06,0.65,1.98,1.22,3.44,1.22c0.9,0,1.8-0.54,2.85-1.17c1.41-0.84,3-1.79,5.13-1.79c2.02,0,3.36,0.82,4.54,1.54
					c1.06,0.66,1.97,1.22,3.44,1.22C147.41,137.19,148.16,136.58,149.1,135.82z"/>
				<path class="st3" d="M130.05,150.98c-1.79,0-3.09-0.54-4.14-1.13v8.14c0.93-0.95,2.26-1.8,4.15-2.38l2.32-0.72
					c1.94-0.62,4.6-1.45,8.79-2.74c1.22-0.37,2.34-0.88,3.35-1.5c-1.52-0.29-2.63-0.96-3.56-1.54c-0.99-0.61-1.78-1.09-2.93-1.09
					c-1.28,0-2.38,0.66-3.55,1.36C133.22,150.12,131.8,150.98,130.05,150.98z"/>
				<path class="st4" d="M149.1,125.59c0.78-0.63,1.7-1.38,3.01-1.67c0.05-0.85,0.1-1.71,0.15-2.57
					c-7.97-1.71-18.11-2.85-26.35-2.93v7.11c0.24,0.14,0.47,0.28,0.7,0.42c1.06,0.65,1.98,1.22,3.44,1.22c0.9,0,1.8-0.54,2.85-1.17
					c1.41-0.84,3-1.8,5.13-1.8c2.02,0,3.36,0.83,4.54,1.55c1.06,0.65,1.97,1.21,3.44,1.21C147.41,126.96,148.16,126.35,149.1,125.59
					z"/>
				<path class="st4" d="M125.91,139.33v6.93c0.24,0.14,0.47,0.28,0.7,0.42c1.06,0.66,1.98,1.22,3.44,1.22c0.9,0,1.8-0.54,2.85-1.17
					c1.41-0.84,3-1.8,5.13-1.8c2.02,0,3.36,0.83,4.54,1.55c1.06,0.65,1.97,1.21,3.44,1.21c1.13,0,1.84-0.4,2.58-0.96
					c1.52-2.25,2.4-5.04,2.62-8.29c0.01-0.14,0.02-0.28,0.03-0.41c-0.07,0.05-0.13,0.1-0.2,0.16c-1.13,0.91-2.54,2.06-5.02,2.06
					c-2.33,0-3.84-0.92-5.05-1.67c-0.99-0.62-1.78-1.1-2.93-1.1c-1.28,0-2.38,0.66-3.55,1.36c-1.25,0.75-2.68,1.6-4.43,1.6
					C128.26,140.46,126.96,139.92,125.91,139.33z"/>
			</g>
			<g>
				<path class="st3" d="M97.63,119.54c-0.38-6.92-0.71-13.89-0.91-19.39c8.4-1.91,19.53-3.16,28.27-3.16
					c8.74,0,19.88,1.25,28.27,3.16c-0.2,5.5-0.53,12.47-0.91,19.39c-7.91-1.68-18.38-2.92-27.36-2.92
					C116.01,116.62,105.55,117.86,97.63,119.54z"/>
				<polygon class="st0" points="103.15,104.73 103.46,103.24 102.08,102.61 103.58,102.45 103.74,100.94 104.35,102.33 
					105.83,102.02 104.71,103.04 105.46,104.37 104.15,103.59 				"/>
				<polygon class="st0" points="112.37,103.5 111.09,102.68 110.03,103.77 110.41,102.29 109.06,101.6 110.57,101.51 110.79,100 
					111.35,101.42 112.83,101.18 111.67,102.15 				"/>
				<polygon class="st0" points="119.29,102.97 118.06,102.08 116.95,103.11 117.4,101.66 116.08,100.9 117.59,100.89 117.89,99.39 
					118.37,100.84 119.87,100.67 118.66,101.58 				"/>
				<polygon class="st0" points="126.2,102.82 125.02,101.86 123.85,102.82 124.39,101.39 123.13,100.56 124.63,100.64 
					125.02,99.17 125.42,100.64 126.92,100.56 125.66,101.39 				"/>
				<polygon class="st0" points="145.89,103.6 144.58,104.37 145.34,103.05 144.22,102.03 145.69,102.34 146.31,100.95 
					146.47,102.46 147.97,102.62 146.59,103.25 146.9,104.74 				"/>
				<polygon class="st0" points="138.37,102.15 137.2,101.18 138.69,101.43 139.24,100 139.47,101.51 140.97,101.6 139.62,102.29 
					140.01,103.77 138.94,102.68 137.67,103.51 				"/>
				<polygon class="st0" points="131.39,101.58 130.18,100.67 131.68,100.84 132.16,99.4 132.46,100.89 133.97,100.91 
					132.66,101.66 133.11,103.12 132,102.08 130.77,102.98 				"/>
				<polygon class="st0" points="104.15,115.92 104.48,114.43 103.1,113.8 104.6,113.65 104.77,112.14 105.38,113.53 106.85,113.24 
					105.72,114.25 106.47,115.58 105.17,114.8 				"/>
				<polygon class="st0" points="113.12,114.79 111.86,113.95 110.79,115.03 111.18,113.56 109.83,112.86 111.34,112.78 
					111.58,111.27 112.12,112.7 113.61,112.47 112.44,113.43 				"/>
				<polygon class="st0" points="119.77,114.31 118.55,113.41 117.43,114.44 117.89,112.98 116.58,112.23 118.09,112.22 
					118.4,110.72 118.87,112.17 120.37,112.01 119.15,112.91 				"/>
				<polygon class="st0" points="126.43,114.19 125.25,113.22 124.08,114.19 124.62,112.76 123.36,111.92 124.86,112 125.25,110.53 
					125.65,112 127.15,111.92 125.88,112.76 				"/>
				<polygon class="st0" points="145.34,114.88 144.04,115.65 144.79,114.32 143.67,113.31 145.14,113.61 145.75,112.22 
					145.91,113.73 147.42,113.89 146.04,114.52 146.36,116.01 				"/>
				<polygon class="st0" points="138.08,113.48 136.91,112.52 138.4,112.75 138.94,111.33 139.18,112.84 140.68,112.92 
					139.33,113.62 139.72,115.09 138.66,114.01 137.38,114.84 				"/>
				<polygon class="st0" points="131.36,112.94 130.15,112.03 131.65,112.2 132.13,110.75 132.43,112.25 133.94,112.27 
					132.62,113.02 133.08,114.48 131.96,113.44 130.73,114.33 				"/>
				<polygon class="st0" points="107.46,109.31 107.81,107.83 106.45,107.16 107.96,107.05 108.16,105.54 108.73,106.95 
					110.22,106.69 109.07,107.67 109.78,109.02 108.5,108.21 				"/>
				<polygon class="st0" points="100.84,110.36 101.14,108.87 99.75,108.25 101.26,108.08 101.4,106.56 102.03,107.95 103.5,107.63 
					102.39,108.66 103.15,109.98 101.84,109.22 				"/>
				<polygon class="st0" points="116.41,108.38 115.16,107.52 114.07,108.57 114.49,107.11 113.16,106.38 114.67,106.33 
					114.94,104.83 115.45,106.27 116.95,106.07 115.75,107 				"/>
				<polygon class="st0" points="123.03,108.06 121.83,107.14 120.69,108.14 121.18,106.7 119.89,105.91 121.4,105.93 
					121.74,104.45 122.18,105.91 123.68,105.78 122.44,106.66 				"/>
				<polygon class="st0" points="129.66,108.15 128.52,107.15 127.31,108.07 127.9,106.66 126.67,105.78 128.17,105.91 
					128.61,104.46 128.95,105.94 130.46,105.91 129.17,106.7 				"/>
				<polygon class="st0" points="148.52,109.27 147.19,110.02 147.97,108.7 146.88,107.66 148.34,108 148.99,106.62 149.11,108.14 
					150.61,108.33 149.22,108.93 149.5,110.43 				"/>
				<polygon class="st0" points="141.29,107.71 140.13,106.73 141.62,107 142.2,105.58 142.4,107.1 143.9,107.21 142.54,107.88 
					142.89,109.36 141.85,108.25 140.56,109.06 				"/>
				<polygon class="st0" points="134.59,107.03 133.4,106.09 134.9,106.3 135.41,104.86 135.68,106.36 137.19,106.41 135.86,107.14 
					136.28,108.61 135.19,107.54 133.94,108.41 				"/>
			</g>
		</g>
		<path class="st3" d="M204.48,135.24l-6.11,1.88l1.38,0.56l-2.14,1.36c0.24-1.25,0.44-2.5,0.62-3.77l3.36-2.81l0.08,1.49l3.78-5.16
			l-5.82,2.67l1.44,0.38l-2.68,2.24c0.19-1.54,0.33-3.1,0.42-4.67l3.31-3.66l0.28,1.46l3.05-5.62l-5.41,3.42l1.48,0.18l-2.64,2.83
			c0.04-0.97,0.06-1.95,0.06-2.93c0-7.37-1.08-14.49-3.09-21.21c-3.35,0.31-6.7-0.76-8.31-1.07c4.29,2.51,5.77,5.23,6.4,8.35
			c-3.43,0.77-8.01-0.36-10.51-2.32c2.46,2.15,4,5.52,4.11,9c-3.54,0.18-6.8-1.48-9.2-3.88c1.54,1.71,3.49,6.06,3.03,9.14
			c-2.95-0.31-6.43-2.24-8.31-4.55c1.56,3.46,2.31,6.25,2.13,9.35c-2.94-0.55-5.16-1.38-7.79-3.88c1.27,3.15,1.73,6.32,1.45,8.93
			c-3.39-1.2-5.64-2.54-7.55-5.74c1.01,2.81,1.68,6.51,0.97,8.66c-2.87-0.86-4.76-2.58-6.25-5.51c1.47,3.11,1.29,6.72,0.79,8.6
			c-1.2-0.24-2.77-1.07-3.61-1.99c-0.04,0.56-0.07,1.11-0.11,1.64c-0.14,2.1-0.56,4.07-1.24,5.88c0.23,0.27,0.79,0.93,0.82,0.96
			c1.51,1.62,3.57,3.16,5.2,3.68c-0.7,0.1-1.67,0.71-2.64,0.81c1.08,1.22,3.27,1.49,4.63,2.88c-1.06,0.12-1.31,0.89-2.58,0.75
			c2.44,1.88,4.67,1.95,5.92,2.1c0.5,0.06,2.14,0.21,3.18,0.05c1.47-0.23,2.99,0.51,3.59,0.85c0.9,0.53,0.85,1.77,0.68,2.4
			c-0.11,0.38-0.27,0.83-0.95,1.18c-0.39,0.11-0.63,0.14-0.25-0.15c0.36-0.26,0.68-1.84-0.14-2.45c-0.6-0.44-1.44-0.8-2.43-0.76
			c-1.1,0.05-2.79,0.15-3.6,0.07c-0.75-0.08-1.21,0.91-1.32,1.32c-0.27,0.98-0.57,2.2-1.99,1.59c-1.74-1-4.23-0.92-7.08-2.06
			c0.41,0.88,0.23,1.63,0.67,2.61c-2.54-0.62-3.18-1.91-5.6-2.76c0.4,0.89,0.29,1.57,0.84,2.4c-2.04-0.36-3.94-2.19-6.78-2.95
			c-0.09,0.03-0.17,0.05-0.26,0.08c-1.03,0.31-1.97,0.61-2.83,0.87c2.01,2.28,3.67,5.07,4.44,8.45c0,0-1.41,0.04-3.51-0.69
			c0.6,1.84,0.97,3.82,1,5.94c0,0-1.59-0.29-3.77-1.64c0.19,2,0.12,4.08-0.29,6.22c0,0-1.84-0.75-4.01-2.97
			c-0.25,2.07-0.77,4.17-1.66,6.24c0,0-1.67-1.14-3.39-3.8c-0.71,2.07-1.71,4.11-3.07,6.05c0,0-1.83-1.92-3.07-5.8
			c-1.66,2.48-3.23,3.55-3.23,3.55c-0.89-2.08-1.41-4.18-1.66-6.24c-2.17,2.21-4.01,2.97-4.01,2.97c-0.42-2.14-0.49-4.23-0.3-6.23
			c-2.18,1.35-3.77,1.64-3.77,1.64c0.04-2.11,0.41-4.09,1.01-5.94c-2.1,0.73-3.51,0.69-3.51,0.69c0.79-3.45,3.05-6.99,4.56-8.58
			c0,0,0,0,0,0c-0.74-0.23-1.54-0.48-2.4-0.74c-0.09-0.03-0.17-0.05-0.26-0.08c-2.84,0.76-4.74,2.59-6.78,2.95
			c0.54-0.84,0.43-1.52,0.83-2.4c-2.42,0.85-3.06,2.14-5.59,2.76c0.43-0.98,0.26-1.73,0.67-2.61c-2.35,1.15-5.58,1.95-7.01,2.25
			c-1.57,0.33-1.67-2.02-2.19-2.54c-0.23-0.23-1.49-0.33-2.02-0.24c-0.78,0.13-2.31,0.07-3.45,0.04c-1.14-0.02-1.92,0.32-2.52,0.77
			c-0.83,0.61-0.44,2.25-0.08,2.52c0.39,0.29,0.15,0.26-0.24,0.15c-0.68-0.35-0.84-0.8-0.95-1.18c-0.17-0.63-0.23-1.87,0.68-2.4
			c0.59-0.34,2.11-1.08,3.58-0.85c1.04,0.16,2.68,0.01,3.18-0.05c0.5-0.05,4.18-0.73,6.61-2.61c-1.27,0.14-1.53-0.62-2.59-0.75
			c1.36-1.38,3.55-1.65,4.63-2.88c-0.97-0.11-1.82-0.88-2.52-0.99c2.14-1.2,3.57-1.89,5.08-3.51c0.02-0.03,0.58-0.66,0.81-0.93
			c-0.69-1.81-1.11-3.79-1.25-5.9c-0.03-0.51-0.07-1.04-0.11-1.58c-0.53,0.58-1.61,1.17-3.37,1.8c-0.82-1.99-0.42-5.72,0.62-8.59
			c-1.49,2.93-3.18,4.84-6.05,5.7c-0.7-2.15-0.29-5.91,0.72-8.72c-1.91,3.19-3.95,4.81-7.34,6c-0.28-2.61-0.01-6.04,1.24-9.2
			c-2.62,2.51-4.85,3.33-7.78,3.88c-0.19-3.1,0.57-5.89,2.13-9.35c-1.88,2.31-5.79,3.89-8.74,4.2c0.22-2.68,2.1-6.35,3.2-8.51
			c-2.78,2-5.74,3.42-8.94,3.6c0.4-3.04,1.77-6.34,4.11-9c-2.75,2.04-6.97,3.15-10.14,2.72c0.77-3.34,2.82-6.6,5.6-8.34
			c-1.61,0.31-4.53,0.98-7.88,0.67c-1.98,6.62-3.06,13.62-3.09,20.87c-1.68-1.32-2.84-1.65-3.99-2.79c0.22,1.57,0.42,2.42,0.6,4.37
			c0.31,3.49,1.63,5.49,3.82,6.75c0.11,1,0.23,1.98,0.38,2.97c-1.62-1.04-3.8-1.69-6.68-1.65c1.75,5.69,4.25,6.11,7.6,6.65
			c0.11,0.52,0.23,1.04,0.36,1.55c-1.78-0.46-3.92-0.47-6.36,0.2c1.68,2.61,4.02,4.2,7.75,4.76c0.01,0.02,0.01,0.04,0.02,0.06
			c-2.3-0.19-4.78,0.15-6.76,1.16c2.83,2.44,5.61,3.36,8.26,3.09c0.13,0.35,0.27,0.69,0.42,1.04c-2.1,0.56-3.94,1.65-4.98,2.66
			c2.21,0.7,4.47,1.07,6.52,0.85c0.02,0.05,0.05,0.1,0.07,0.15c-1.2,0.92-2.25,2.4-2.89,4.73c1.57-0.4,3.18-0.51,4.79-0.97
			c0.32,0.59,0.66,1.18,1,1.77c-0.85,1.61-1.14,3.64-0.64,5.89c1.35-0.31,2.47-0.84,3.39-1.52c0.32,0.47,0.64,0.93,0.97,1.39
			c-0.34,2.58,0.26,5.18,1.8,6.9c0.62-0.7,1.11-1.37,1.54-2.02c3.33-5.09,1.32-8.75,1.39-12.05c0.03-0.07,0.05-0.13,0.08-0.21
			c0.27,3.93,3.69,7.81-0.32,12.55c-0.08,0.09-0.15,0.17-0.22,0.26c13.56,15.74,33.62,25.71,56.03,25.71
			c31.81,0,58.92-20.09,69.35-48.27l3.36-1.46l-0.25,1.46l4.84-4.19l-6.27,1.29l1.33,0.69l-2.59,1.06c0.46-1.3,0.88-2.62,1.27-3.95
			l3.68-2.03l-0.12,1.48l4.44-4.61l-6.12,1.86l1.38,0.57l-2.94,1.62c0.39-1.44,0.74-2.9,1.05-4.38l2.8-1.78l-0.12,1.48
			L204.48,135.24z"/>
		<path class="st0" d="M86.08,162.16c6.02,4.53,9.43,10.82,10.31,15.88c-0.76-0.55-2.18-1.13-3.05-0.96
			c-0.78-5.34-3.57-9.66-7.95-13.17C85.57,163.1,85.84,162.54,86.08,162.16z"/>
		<g>
			<path class="st0" d="M81.47,166.87c1.43,0.56,2.15,0.35,2.51-0.15c0.77-1.09,0.4-2.52-0.09-2.77c0.11,0.44,0.09,0.9-0.01,1.42
				c-0.08,0.42-0.29,1.12-1.08,1.03c-0.42-0.05-1.2-0.25-1.66-0.57c-0.33-0.22-0.32-0.79-0.14-1.27c0.09-0.24,0.2-0.58,0.5-0.82
				c-0.49,0.11-0.78,0.37-1.16,0.67c-0.38,0.3-0.95,0.36-1.27,0c-0.41-0.44-0.65-0.78-0.79-1.08c-0.34-0.78,0.66-1.35,1.24-1.65
				c-1,0.01-1.18,0.39-1.99,0.25c-0.81-0.14-1.02-1.45-1.02-1.88c0-0.32,0.39-0.62,0.87-0.73c0.44-0.1,0.98-0.06,1.28-0.03
				c-0.04-0.2-0.07-0.45-0.06-0.71c-0.82-0.19-2.4,0.09-2.7,0.54c-0.38,0.57-0.29,0.88,0.02,1.89c0.3,0.98,0.53,1.33,1.17,1.42
				c0.18,0.02,0.51,0.07,0.89-0.07c-0.2,0.13-0.34,0.23-0.44,0.49c-0.11,0.26-0.28,0.7,0.49,1.63c0.68,0.81,1.34,1.13,1.9,0.82
				c0.32-0.18,0.43-0.37,0.58-0.53c-0.09,0.21-0.18,0.45-0.23,0.69C80.11,166.27,80.72,166.58,81.47,166.87z"/>
			<g>
				<path class="st0" d="M80.42,160.61c0.41-0.51,1.4-0.57,1.96-0.22c-0.38,0.72-0.42,1.92-0.2,2.51
					C80.76,162.67,80.51,161.32,80.42,160.61z"/>
				<path class="st0" d="M82.64,160.53c0.83-0.06,1.14-0.47,1.29-0.88c0.15-0.4,0.6-0.65,0.61-0.04c0.01,0.61,0.01,0.88-0.34,1.05
					C83.86,160.83,83.25,160.88,82.64,160.53z"/>
				<path class="st0" d="M83.07,161.85c-0.08,0.45-0.24,0.87-0.52,1.27c-0.21,0.31-0.52,0.5-0.74,0.69
					c0.38,0.29,0.93,0.46,1.38,0.44c0.45-0.02,0.47-0.09,0.44-0.26C83.54,163.22,83.25,162.15,83.07,161.85z"/>
			</g>
		</g>
		<g>
			<path class="st0" d="M166.96,159.87c0.39,0.71,0.41,1.92,0.21,2.51c1.42-0.23,1.67-1.57,1.76-2.29
				C168.51,159.58,167.53,159.52,166.96,159.87z"/>
			<path class="st0" d="M166.7,160.01c-0.84-0.06-1.14-0.47-1.29-0.88c-0.16-0.4-0.6-0.65-0.61-0.04c-0.01,0.61-0.01,0.88,0.33,1.05
				C165.48,160.31,166.11,160.37,166.7,160.01z"/>
			<path class="st0" d="M166.79,162.6c-0.27-0.4-0.44-0.82-0.52-1.27c-0.17,0.3-0.46,1.38-0.57,2.14c-0.03,0.17-0.01,0.24,0.45,0.26
				c0.45,0.02,1-0.14,1.38-0.44C167.31,163.11,167.01,162.91,166.79,162.6z"/>
			<g>
				<path class="st0" d="M191.54,140.02l1.44,0.39l-21.64,17.1l0,0l-0.51,0.4c-0.03,0-0.06,0.01-0.1,0.01c0.02,0.25,0,0.5-0.04,0.71
					c0.31-0.01,0.72-0.01,1.08,0.08c0.47,0.12,0.85,0.44,0.84,0.75c-0.01,0.43-0.25,1.73-1.06,1.85c-0.82,0.12-0.98-0.27-1.99-0.31
					c0.57,0.32,1.56,0.92,1.19,1.69c-0.14,0.3-0.4,0.62-0.81,1.06c-0.33,0.34-0.9,0.27-1.27-0.04c-0.38-0.31-0.66-0.57-1.14-0.7
					c0.29,0.25,0.39,0.6,0.47,0.84c0.17,0.48,0.16,1.05-0.18,1.27c-0.47,0.3-1.25,0.48-1.68,0.52c-0.79,0.07-0.99-0.63-1.06-1.06
					c-0.08-0.52-0.09-0.99,0.03-1.42c-0.49,0.24-0.9,1.66-0.17,2.77c0.34,0.51,1.05,0.74,2.51,0.22c0.77-0.27,1.38-0.57,1.25-1.37
					c-0.04-0.24-0.13-0.48-0.21-0.69c0.15,0.16,0.25,0.36,0.56,0.54c0.55,0.32,1.21,0.03,1.92-0.77c0.79-0.9,0.63-1.36,0.54-1.62
					c-0.09-0.26-0.23-0.37-0.42-0.5c0.38,0.15,0.71,0.11,0.89,0.09c0.64-0.08,0.88-0.42,1.21-1.39c0.34-1.01,0.44-1.3,0.07-1.89
					c-0.15-0.24-0.67-0.45-1.25-0.56l21.48-16.95l0.06,1.49l3.85-5.11L191.54,140.02z"/>
				<path class="st0" d="M179.99,145.27l15.25-19.31l0.4,1.44l2.56-5.87l-5.1,3.87l1.49,0.05l-13.81,17.5
					c-1.08,1.64-2.23,3.39-3.31,5.02l0.03,0.02C178.32,147.12,179.15,146.2,179.99,145.27z"/>
				<path class="st0" d="M178.18,151.01c1.28-1.01,2.62-2.06,3.92-3.1l12.7-11.76l0.18,1.48l3.43-5.41l-5.63,3.04l1.46,0.28
					l-12.74,11.81C180.35,148.62,179.23,149.85,178.18,151.01z"/>
				<path class="st0" d="M192.29,148.25l-17.89,8.96c-0.32,0.25-0.57,0.45-0.72,0.57c0.13,0.1,0.23,0.21,0.31,0.34
					c0.04,0.06,0.06,0.11,0.09,0.16l18.58-9.3l-0.25,1.47l4.82-4.22l-6.26,1.34L192.29,148.25z"/>
				<path class="st0" d="M165.25,167.19c-0.27-0.09-0.5-0.22-0.7-0.41l-3.2,6.64l0.02,0.01l-1.17,0.39l-3.79,7.26l1.83-0.56
					l0.67,1.8l3.59-7.36l-0.42-1.19L165.25,167.19z"/>
				<path class="st0" d="M177.72,154.58c1.23-0.62,2.64-1.33,4.08-2.05l11.89-7.77l-0.08,1.49l4.3-4.74l-6.07,2.04l1.39,0.52
					l-12.94,8.46C179.4,153.26,178.52,153.95,177.72,154.58z"/>
				<path class="st0" d="M163.79,165.42c-0.09-0.35-0.12-0.72-0.09-1.09l-4.25,4.63l-1.25,0.1l-0.11,0.11l0,0l-5.91,5.91l0.28-0.01
					l-0.02,0.02l0.07-0.03l1.46-0.07l0.26,1.45l4.9-6.44l0.94-0.2L163.79,165.42z"/>
				<path class="st0" d="M171.63,156.18c0.52-0.41,1.27-1,2.17-1.71l20.88-22.83l0.29,1.46l2.99-5.66l-5.37,3.48l1.48,0.16
					L172.21,155C172,155.43,171.81,155.82,171.63,156.18z"/>
				<path class="st0" d="M152.95,171.79l7.78-5.48c0.89-0.97,1.87-2.04,2.21-2.41l-9.72,6.42l0.01,0.02l-1.21-0.25l-0.71,0.44
					l-6.24,3.89l1.75,0.36l0.21,1.32l5.03-4.34L152.95,171.79z"/>
				<path class="st0" d="M146.5,172.51l3.12-1.94l2.91-1.98l0.99,0.19c0,0,7.08-4.37,8.82-5.5c0.09-0.06,0.14-0.09,0.14-0.09h0
					c0.02-0.01,0.04-0.02,0.05-0.04l-9.3,4.64l-1.18-0.37l-7.4,3.51l1.67,0.61L146.5,172.51z"/>
			</g>
			<g>
				<path class="st0" d="M181.58,129.55l1.47-0.26l-13.37,27.08c0.11,0.05,0.2,0.11,0.28,0.15c0.16,0.09,0.29,0.21,0.39,0.33
					l13.44-27.2l0.69,1.32l1.3-6.27L181.58,129.55z"/>
			</g>
			<path class="st0" d="M183.18,134.12l1.49-0.08l-8.4,12.74c-0.98,1.99-1.94,3.93-2.78,5.63c0.04-0.05,0.09-0.1,0.13-0.15
				l11.73-17.78l0.52,1.4l2.06-6.06L183.18,134.12z"/>
		</g>
		<path class="st0" d="M60.18,150.16c0.19,0.02,0.15,0.01-0.07-0.06c-2.23-1.25-3.81-1.67-6.88-1.26
			C56.11,149.06,58.13,149.45,60.18,150.16z"/>
		<path class="st0" d="M61.55,165.87c0.33-2.14,1.75-4.7,3.83-6.42c1.46-1.21,2.28-1.65,1.07-0.38
			C64.6,161.02,62.46,164.15,61.55,165.87z"/>
		<path class="st0" d="M66.11,171.71c-0.8-2.01-0.1-5.25,0.77-7.36c0.6-1.46,2.1-3.68,2.56-3.89
			C67.79,163.01,66.02,169.77,66.11,171.71z"/>
		<path class="st0" d="M59.42,143.61c-0.15-0.76-0.9-1.25-1.66-1.1c-0.76,0.15-1.26,0.89-1.1,1.66c0.15,0.76,0.9,1.26,1.66,1.1
			C59.08,145.12,59.58,144.38,59.42,143.61z"/>
		<path class="st0" d="M71.68,145.55c0.05-2.11-0.27-4.28-0.02-6.74c-4.2,3.06-5.63,8.43-3.89,12.18c-0.17-0.03-0.35-0.03-0.54,0
			c-0.79,0.16-1.3,0.93-1.14,1.72c0.16,0.79,0.93,1.3,1.72,1.14c0.79-0.16,1.3-0.93,1.14-1.71c-0.08-0.4-0.32-0.73-0.63-0.93
			c-0.7-3.32-0.12-7.46,1.62-9.21c-0.54,2.08-1.53,6.43-0.89,10.44c0.68-0.78,1.19-1.54,1.58-2.29c0.08,0.63,0.23,1.29,0.5,1.97
			c0.09-3.19,1.16-6.35,4.47-8.55c-2.43,3.08-3.82,6.68-4.11,9.38c1.77-2.24,5.78-2.91,6.06-11.68
			C75.5,141.87,73.07,143.35,71.68,145.55z"/>
		<path class="st0" d="M74.45,154.57c-0.17-0.83-0.97-1.37-1.8-1.2c-0.83,0.17-1.36,0.97-1.19,1.8c0.17,0.82,0.97,1.36,1.79,1.19
			C74.08,156.19,74.61,155.38,74.45,154.57z"/>
		<path class="st0" d="M73.92,159.18c-0.17-0.83-0.97-1.37-1.8-1.2c-0.82,0.17-1.36,0.97-1.19,1.8c0.16,0.82,0.97,1.36,1.79,1.19
			C73.55,160.81,74.08,160,73.92,159.18z"/>
		<path class="st0" d="M65.07,136.66c-3.09,2.59-3.96,5.84-3.63,8.69c-0.12-0.01-0.24-0.01-0.36,0.01
			c-0.64,0.13-1.06,0.76-0.93,1.39c0.13,0.64,0.75,1.06,1.39,0.93c0.15-0.03,0.28-0.09,0.4-0.16c0.29,0.83,0.68,1.59,1.13,2.25
			c-0.28-0.96-0.48-2.03-0.58-3.11c0.01-0.12,0.02-0.24-0.01-0.36c-0.01-0.03-0.02-0.05-0.02-0.08c-0.16-2.43,0.21-4.94,1.56-6.74
			c-0.42,2.65-1.05,7.77-0.45,10.95C64.47,147.04,69.34,145.54,65.07,136.66z"/>
		<path class="st0" d="M77.48,156.63c-0.13-0.64-0.75-1.06-1.4-0.93c-0.64,0.13-1.06,0.76-0.93,1.4c0.13,0.64,0.76,1.06,1.4,0.93
			C77.19,157.9,77.6,157.27,77.48,156.63z"/>
		<path class="st0" d="M70.91,156.41c-0.12-0.59-0.69-0.97-1.28-0.85c-0.59,0.12-0.97,0.69-0.86,1.28c0.12,0.59,0.7,0.98,1.28,0.86
			C70.66,157.58,71.03,157,70.91,156.41z"/>
		<path class="st0" d="M55.96,141.37c-0.08-0.49-0.51-0.84-0.99-0.84c-1.53-2.07-3.74-4.29-7.42-4.68c2.02,0.96,5.05,2.82,7.15,4.71
			c-0.5,0.13-0.83,0.62-0.74,1.14c0.1,0.55,0.62,0.92,1.17,0.83C55.69,142.44,56.06,141.92,55.96,141.37z"/>
		<path class="st0" d="M56.01,134.39c-0.14-0.7-0.81-1.14-1.51-1c-0.03,0.01-0.06,0.02-0.09,0.03c-0.84-3.26-1.64-5.8-5.35-8.35
			c1.86,2.38,4,5.84,5.2,8.39c-0.56,0.23-0.89,0.82-0.77,1.44c0.14,0.69,0.82,1.14,1.51,1C55.7,135.76,56.15,135.08,56.01,134.39z"
			/>
		<path class="st0" d="M59.76,147.21c-0.09-0.55-0.61-0.92-1.17-0.82c-0.27,0.05-0.49,0.2-0.64,0.39c-3.28-2.89-5.53-2.91-7.26-2.99
			c1.04,0.37,4.79,1.45,7.17,3.13c-0.1,0.19-0.14,0.4-0.1,0.63c0.09,0.56,0.62,0.92,1.17,0.83
			C59.49,148.29,59.86,147.77,59.76,147.21z"/>
		<path class="st0" d="M62.52,151.31c-0.16-0.79-0.93-1.3-1.72-1.14c-0.79,0.16-1.3,0.93-1.14,1.72c0.16,0.79,0.93,1.3,1.72,1.14
			C62.17,152.86,62.68,152.09,62.52,151.31z"/>
		<path class="st0" d="M64.64,153.82c-0.09-0.55-0.62-0.92-1.17-0.82c-0.34,0.05-0.62,0.28-0.75,0.58
			c-2.85-0.38-5.96,0.02-8.56,1.47c2.93-0.68,5.99-1.3,8.5-1.31c0,0,0.01,0,0.01,0c-0.04,0.13-0.05,0.28-0.02,0.42
			c0.1,0.55,0.62,0.92,1.17,0.83C64.36,154.89,64.73,154.36,64.64,153.82z"/>
		<path class="st0" d="M67.57,155.53c-0.15-0.71-0.84-1.18-1.56-1.04c-0.71,0.14-1.17,0.84-1.03,1.54c-0.03,0-0.06-0.01-0.09-0.01
			c-2.11-0.08-5.63,0.48-7.78,3.03c2.21-1.3,5.73-2.64,7.84-2.93c0.02,0,0.04,0,0.06,0c0.18,0.66,0.84,1.09,1.53,0.95
			C67.25,156.93,67.71,156.24,67.57,155.53z"/>
		<g>
			<g>
				<path class="st3" d="M217.64,80.07c3.44-1.51,7.39-0.82,8.39,1.46c1,2.31-1.16,5.68-4.6,7.18c-3.47,1.52-7.42,0.83-8.43-1.47
					C212.01,84.96,214.17,81.59,217.64,80.07z M222.84,91.93c4.36-1.91,6.33-6.77,4.49-10.97c-1.84-4.2-6.75-6.02-11.1-4.11
					c-4.36,1.91-6.37,6.76-4.53,10.96C213.54,92,218.48,93.84,222.84,91.93z"/>
				<path class="st3" d="M216.75,103.28l-1.67-6.57l1.02-0.26l0.46,1.83l13.91-3.53L230,92.93l1.01-0.26l2.53,9.95l0.67-0.18
					l0.33,1.31l-3.84,0.97l-0.33-1.28l1.74-0.44l-1.27-5.02l-5.7,1.45l0.98,3.86l1.64-0.42l0.35,1.3l-4.75,1.21l-0.36-1.3l1.69-0.43
					l-0.98-3.86l-6.38,1.62l0.41,1.61L216.75,103.28z"/>
			</g>
			<g>
				<path class="st3" d="M22.3,85.66l-0.6,2l8.98,2.68c2.7,0.8,4.11,2.24,4.46,4.56c0.16,1.19,0.08,2.44-0.29,3.68
					c-1.15,3.86-4.02,5.74-7.32,4.76l-9.65-2.87l-0.54,1.81l-1-0.3l2-6.68l1,0.3l-0.54,1.79l8.9,2.65c2.41,0.72,3.64,0.62,4.65-0.41
					c0.46-0.49,0.83-1.13,1.04-1.85c0.85-2.86-0.34-5.04-3.26-5.91l-8.88-2.65l-0.59,1.98l-1.03-0.31l1.65-5.54L22.3,85.66z"/>
				<path class="st3" d="M38.08,89.54c-0.36,0.85-1.33,1.25-2.18,0.89c-0.85-0.36-1.25-1.33-0.89-2.18
					c0.36-0.85,1.33-1.25,2.18-0.89C38.03,87.7,38.43,88.68,38.08,89.54z"/>
				<path class="st3" d="M41.18,82.43l-0.67,1.2l-3.91-2.2l0.67-1.2l1.6,0.9c1.33-0.54,2.03-1.12,2.63-2.18
					c0.76-1.35,0.5-2.77-0.63-3.41c-0.98-0.55-2.02-0.31-4.46,0.98c-2.54,1.37-2.91,1.51-3.88,1.7c-0.94,0.19-1.96-0.02-2.92-0.55
					c-2.39-1.34-2.99-3.99-1.5-6.64c0.48-0.85,0.99-1.45,1.79-2.08l-0.65-0.37l0.66-1.17l3.71,2.09l-0.66,1.17l-1.5-0.84
					c-1.1,0.58-1.65,1.04-2.1,1.85c-0.63,1.13-0.32,2.45,0.7,3.02c0.87,0.49,1.69,0.29,4.19-1.04c1.21-0.63,1.96-1.04,2.27-1.18
					c0.63-0.3,1.36-0.49,2.16-0.53c0.9-0.04,1.73,0.17,2.58,0.65c2.47,1.39,3.2,4.17,1.77,6.71c-0.71,1.26-1.48,2.03-2.63,2.69
					L41.18,82.43z"/>
				<path class="st3" d="M47.71,71.14c0,0.91-0.72,1.63-1.63,1.63c-0.91,0-1.63-0.72-1.63-1.63c0-0.91,0.72-1.63,1.63-1.63
					C46.99,69.52,47.71,70.24,47.71,71.14z"/>
			</g>
			<g>
				<path class="st3" d="M86.25,39.11l-10.54,5.43l-0.48-0.93l1.68-0.86l-6.57-12.76l-1.68,0.87l-0.48-0.93l9.12-4.7l-0.31-0.62
					l1.19-0.62l1.81,3.52l-1.17,0.61L78,26.52l-4.61,2.37l2.69,5.23l3.54-1.83l-0.78-1.5l1.19-0.64l2.25,4.36l-1.19,0.64l-0.8-1.55
					l-3.54,1.82l2.82,5.47l4.8-2.48l-0.85-1.64l1.19-0.61L86.25,39.11z"/>
				<path class="st3" d="M96.39,35.44l-6.86,2.27l-0.33-1l1.8-0.59l-4.52-13.62l-1.8,0.59l-0.33-0.99l7.16-2.38
					c2.93-0.97,5.44,0.17,6.33,2.89c0.85,2.58-0.71,5.46-3.48,6.37c-0.4,0.13-0.67,0.19-1.32,0.28l-0.38-1.16
					c0.33-0.03,0.45-0.07,0.66-0.14c1.61-0.53,2.12-1.99,1.42-4.09c-0.73-2.22-1.99-3.09-3.7-2.53l-1.42,0.47l4.41,13.29l2.01-0.67
					L96.39,35.44z"/>
				<path class="st3" d="M104.51,26.38l1.42-6.57l3.4,5.73L104.51,26.38z M116.63,29.91l-1.03,0.18l-8.81-14.62l-1.5,0.26
					l-3.61,16.78l-1.52,0.26l0.18,1.03l5.08-0.88l-0.18-1.03l-1.96,0.34l0.9-4.25l5.96-1.04l2.21,3.71l-1.72,0.3l0.18,1.03
					l5.99-1.04L116.63,29.91z"/>
				<path class="st3" d="M123.73,15.92l1.57,0c1.77,0.01,2.79,1.15,2.78,3.15c0,1.97-1.18,3.33-2.89,3.33l-1.47-0.01L123.73,15.92z
					 M133.83,29.92l-1.02,0c-0.5,0-0.8-0.23-1.37-1.1l-3.52-5.44c2.34-0.72,3.49-2.16,3.5-4.4c0-1.32-0.39-2.39-1.21-3.22
					c-0.89-0.9-2.09-1.23-4.23-1.23l-7.35-0.02v1.05l1.89,0l-0.03,14.35l-1.89-0.01l0,1.05l6.98,0.02v-1.05l-1.87,0l0.02-6.28
					l0.68,0l3.72,5.86c0.85,1.32,1.09,1.47,2.56,1.48l3.16,0.01L133.83,29.92z"/>
				<path class="st3" d="M145.1,32.96l-7.91-1.34l0.17-1.03l2.38,0.4l2.32-13.73l-4.25-0.72l-0.34,2.04l-1.35-0.23l0.7-4.18
					l1.36,0.23l-0.12,0.69l11.64,1.97l0.12-0.69l1.35,0.23l-0.71,4.18l-1.35-0.23l0.35-2.04l-4.22-0.71l-2.32,13.73l2.36,0.4
					L145.1,32.96z"/>
				<path class="st3" d="M168.38,40.83l-6.9-2.68l0.38-0.97l1.95,0.76l3.89-10.03l-9.47,9.26l-1.32-13.2l-3.81,9.82l1.95,0.76
					l-0.38,0.97l-5.37-2.08l0.38-0.98l1.95,0.76l5.19-13.38l-1.95-0.76l0.38-0.98l4.11,1.6l1.32,12.93l9.04-8.92l4.6,1.78
					l-0.38,0.97L172,25.72l-5.19,13.37l1.95,0.76L168.38,40.83z"/>
				<path class="st3" d="M180.51,48.76l-10-6.38l0.56-0.88l1.6,1.02l7.72-12.09l-1.6-1.02l0.56-0.88l8.65,5.52l0.37-0.59l1.14,0.72
					l-2.13,3.34l-1.12-0.71l0.97-1.51l-4.37-2.79l-3.16,4.96l3.35,2.15l0.92-1.43l1.15,0.7l-2.64,4.14l-1.15-0.7l0.94-1.47
					l-3.36-2.14l-3.31,5.18l4.55,2.91l0.99-1.55l1.13,0.72L180.51,48.76z"/>
				<path class="st3" d="M70.02,38.57c-2.73-3.71-7.8-4.43-11.59-1.65l-6.26,4.6l0.62,0.84l1.53-1.12l8.48,11.54
					c0.4,0.16,0.8,0.31,1.2,0.46l4.15-3.05c1.97-1.45,3-3.03,3.37-5.17C71.9,42.69,71.38,40.42,70.02,38.57z M66.82,49.45l-1.63,1.2
					l-8.1-11.02l1.71-1.25c2.35-1.73,6.22-0.67,8.39,2.28C69.51,43.8,69.36,47.59,66.82,49.45z"/>
				<path class="st3" d="M201.72,45.35l-0.71,0.78l1.45,1.33l-7.03,7.71l1.77-13.92l-3.66-3.34l-0.7,0.77l1.32,1.21l-0.27,1.48
					l-8.81,9.66l-1.53-1.39l-0.71,0.77l4.16,3.79l0.7-0.78l-1.45-1.33l7.33-8.04l-1.57,12.77c1.52-0.39,3.14-0.83,4.9-1.32
					c0.14-0.04,0.28-0.08,0.42-0.12l6.27-6.88l1.55,1.41l0.71-0.77L201.72,45.35z"/>
				<path class="st3" d="M218.49,63.46l-0.55,0.42l-7.16-9.38l0.55-0.42l-0.83-1.09l-3.36,2.57l0.83,1.09l1.64-1.25l2.61,3.42
					l-11.06,8.45l-0.57-0.75c-0.32,0.18-0.64,0.33-0.96,0.47l4.1,5.37l0.83-0.63l-1.45-1.9l11.06-8.45l2.6,3.4l-1.64,1.26l0.84,1.09
					l3.36-2.57L218.49,63.46z"/>
			</g>
			<g>
				<path class="st3" d="M145.66,234.49l-1.34,0.29l-0.96-4.38l1.34-0.29l0.39,1.8c1.29,0.63,2.18,0.77,3.37,0.51
					c1.51-0.33,2.41-1.47,2.13-2.74c-0.24-1.1-1.12-1.72-3.7-2.68c-2.71-0.99-3.06-1.16-3.85-1.76c-0.77-0.57-1.29-1.47-1.53-2.54
					c-0.59-2.68,1-4.89,3.96-5.54c0.95-0.21,1.74-0.22,2.74-0.04l-0.16-0.73l1.31-0.29l0.91,4.16l-1.31,0.29l-0.37-1.68
					c-1.17-0.43-1.87-0.54-2.77-0.34c-1.27,0.28-2.05,1.39-1.79,2.54c0.21,0.97,0.91,1.46,3.57,2.43c1.28,0.49,2.08,0.77,2.39,0.9
					c0.64,0.27,1.27,0.69,1.83,1.26c0.63,0.66,1.02,1.41,1.23,2.36c0.61,2.77-0.98,5.16-3.84,5.78c-1.41,0.31-2.49,0.24-3.75-0.17
					L145.66,234.49z"/>
				<path class="st3" d="M170.99,226.52l-11.03,4.33l-0.38-0.97l1.76-0.69l-5.24-13.36l-1.76,0.7l-0.38-0.97l9.56-3.75l-0.26-0.65
					l1.25-0.49l1.45,3.69l-1.23,0.48l-0.65-1.67l-4.83,1.89l2.15,5.47l3.71-1.46l-0.62-1.58l1.25-0.52l1.79,4.57l-1.24,0.52
					l-0.64-1.62l-3.71,1.46l2.25,5.72l5.04-1.97l-0.68-1.72l1.25-0.49L170.99,226.52z"/>
				<path class="st3" d="M187.59,216.41c-1.41,1.76-2.39,2.68-4.02,3.66c-4.49,2.73-9.53,1.64-12.1-2.6
					c-2.54-4.2-1.25-9.27,3.04-11.86c1.38-0.84,2.45-1.23,4.01-1.45l-0.54-0.89l1.17-0.71l2.31,3.81l-1.17,0.71l-0.83-1.37
					c-1.73-0.12-2.56,0.06-3.69,0.75c-2.96,1.8-3.52,5.52-1.38,9.05c2.1,3.45,6,4.76,8.94,2.97c1.07-0.64,1.69-1.34,2.31-2.57
					l-0.98-1.62l1.19-0.72L187.59,216.41z"/>
				<path class="st3" d="M195.08,190.7l-1.54,1.41l6.31,6.92c1.9,2.08,2.37,4.04,1.48,6.2c-0.48,1.11-1.19,2.13-2.15,3
					c-2.98,2.73-6.41,2.85-8.73,0.31l-6.78-7.44l-1.4,1.28l-0.7-0.77l5.15-4.7l0.71,0.77l-1.38,1.26l6.27,6.87
					c1.7,1.86,2.8,2.4,4.19,2.04c0.64-0.19,1.3-0.54,1.85-1.05c2.21-2.01,2.3-4.5,0.26-6.74l-6.25-6.85l-1.53,1.4l-0.72-0.79
					l4.27-3.89L195.08,190.7z"/>
				<path class="st3" d="M223.06,176.17l-3.33,6.13l-0.92-0.5l0.9-1.67l-12.61-6.83l-0.91,1.66l-0.91-0.5l3.32-6.13l0.92,0.5
					l-0.89,1.64l12.62,6.83l0.89-1.64L223.06,176.17z"/>
				<path class="st3" d="M229.42,161.27l-2.82,7.5l-0.98-0.37l0.85-2.26l-13.03-4.91l-1.52,4.03l1.94,0.73l-0.48,1.29l-3.96-1.49
					l0.48-1.28l0.65,0.25l4.16-11.05l-0.65-0.25l0.48-1.28l3.97,1.49l-0.48,1.28l-1.93-0.73l-1.51,4.01l13.03,4.91l0.84-2.24
					L229.42,161.27z"/>
				<path class="st3" d="M233.83,142.94l-1.34,6.85l-1.03-0.2l0.36-1.84l-6.75-1.32l-8.28,3.41l-0.3,1.54l-1.03-0.2l1.33-6.84
					l1.03,0.2l-0.36,1.81l6.03-2.42l-4.72-4.3l-0.4,2.08l-1.02-0.2l1.11-5.69l1.02,0.2l-0.34,1.76l5.9,5.39l7.38,1.45l0.36-1.86
					L233.83,142.94z"/>
				<path class="st3" d="M217.06,185.15l-0.61,0.82c-0.3,0.4-0.65,0.51-1.7,0.45l-6.47-0.4c0.82-2.31,0.34-4.09-1.46-5.43
					c-1.06-0.79-2.16-1.11-3.31-0.94c-1.26,0.19-2.23,0.95-3.51,2.67l-4.38,5.9l0.83,0.62l1.13-1.52l11.52,8.55l-1.13,1.52
					l0.84,0.62l4.16-5.6l-0.84-0.62l-1.11,1.5l-5.04-3.75l0.4-0.54l6.93,0.49c1.56,0.11,1.83-0.01,2.71-1.19l1.89-2.54
					L217.06,185.15z M199.8,184.96l0.93-1.26c1.06-1.42,2.59-1.56,4.19-0.37c1.58,1.18,1.98,2.93,0.96,4.31l-0.88,1.18L199.8,184.96
					z"/>
			</g>
			<g>
				<path class="st3" d="M19.67,158.35l-1.66-6.77l1.02-0.25l0.44,1.82l6.36-1.55l-1.92-7.87l-6.36,1.55l0.45,1.81l-1.02,0.25
					l-1.66-6.77l1.02-0.25l0.45,1.84l13.94-3.41l-0.45-1.84l1.02-0.25l1.65,6.77l-1.02,0.25l-0.44-1.81l-6.15,1.5l1.92,7.86
					l6.15-1.5l-0.44-1.81l1.02-0.25l1.65,6.78l-1.02,0.25l-0.45-1.84l-13.94,3.41l0.45,1.84L19.67,158.35z"/>
				<path class="st3" d="M29.17,162.14c3.42-1.56,7.38-0.92,8.41,1.34c1.04,2.29-1.07,5.69-4.5,7.25c-3.45,1.57-7.4,0.93-8.44-1.36
					C23.61,167.11,25.72,163.71,29.17,162.14z M34.54,173.93c4.33-1.97,6.23-6.86,4.33-11.03c-1.9-4.17-6.83-5.92-11.16-3.95
					c-4.33,1.97-6.27,6.85-4.37,11.02C25.24,174.14,30.21,175.9,34.54,173.93z"/>
				<path class="st3" d="M40.87,197.59l-4.35-5.99l0.85-0.61l1.23,1.69l8.71-6.32L34.33,189l6.04-11.8l-8.52,6.19l1.23,1.69
					l-0.85,0.62l-3.38-4.66l0.85-0.61l1.23,1.69l11.61-8.43L41.31,172l0.84-0.62l2.59,3.56l-5.9,11.59l12.43-2.6l2.9,3.99
					l-0.85,0.62l-1.23-1.7l-11.61,8.43l1.23,1.7L40.87,197.59z"/>
				<path class="st3" d="M53.83,210.33l-8.72-8.03l0.71-0.77l1.39,1.28l9.72-10.55l-1.39-1.28l0.71-0.77l7.55,6.96l0.47-0.52
					l0.99,0.91l-2.69,2.91l-0.97-0.89l1.21-1.32l-3.81-3.51l-3.98,4.32l2.93,2.7l1.15-1.25l1,0.89l-3.33,3.61l-1.01-0.89l1.18-1.29
					l-2.93-2.7l-4.17,4.52l3.97,3.66l1.25-1.36l0.99,0.91L53.83,210.33z"/>
				<path class="st3" d="M68.66,220.5l-9.76-6.56l0.59-0.87l1.57,1.06l8.01-11.91l-1.57-1.06l0.59-0.87l5.79,3.89l-0.58,0.87
					l-1.55-1.04l-7.77,11.55l4.4,2.96l1.03-1.53l1.11,0.75L68.66,220.5z"/>
				<path class="st3" d="M78.6,218.38l4.87-4.62l-0.43,6.65L78.6,218.38z M86.61,228.14l-0.95-0.44l0.97-17.04l-1.38-0.63
					l-12.44,11.82l-1.4-0.64l-0.43,0.95l4.69,2.14l0.43-0.96l-1.81-0.82l3.14-3l5.51,2.51l-0.27,4.31l-1.59-0.72l-0.43,0.95
					l5.53,2.52L86.61,228.14z"/>
				<path class="st3" d="M103.85,234.01l-1.7-0.41l-5.59-13.89l-2.53,10.59l1.91,0.46l-0.24,1.02l-5.48-1.31l0.24-1.02l2.01,0.48
					l3.05-12.71l-0.48-1.42l-1.74-0.42l0.24-1.02l4.82,1.16l5.17,13.04l2.43-10.15l-1.92-0.46l0.25-1.02l5.47,1.31l-0.25,1.02
					l-2.04-0.49L103.85,234.01z"/>
				<path class="st3" d="M120.02,218.81l-7.77-0.28l-0.04,1.05l1.89,0.07l-0.51,14.34h0l-1.89-0.07l-0.04,1.05l7.74,0.28l-0.02,0
					h0.02c2.44,0.09,4.23-0.52,5.85-1.96c1.75-1.58,2.75-3.69,2.83-5.98C128.26,222.7,124.72,218.98,120.02,218.81z M124.58,227.18
					c-0.14,3.91-2.61,6.79-5.75,6.67l-2.02-0.07l0.49-13.67l2.11,0.08C122.33,220.29,124.71,223.52,124.58,227.18z"/>
			</g>
		</g>
		<path class="st0" d="M62.19,129.65c-4.76,2.08-6.96,8.01-4.53,12.36C59.89,138.84,64.08,138.15,62.19,129.65z M57.68,141.77
			c-0.57-2.39,0.92-8.76,3.05-10.07C59.35,134.8,58.78,137.66,57.68,141.77z"/>
		<path class="st0" d="M57.36,120.75c-1.52,0.62-3.68,2.74-4.65,5.52c0.38,0.43,0.69,0.89,0.97,1.37c0.54-2.04,1.69-4.42,2.85-5.43
			c-0.76,1.3-1.82,4.17-2.34,6.43c0.54,1.26,0.77,2.57,0.73,3.81C57.82,129.79,58.83,125.19,57.36,120.75z"/>
	</g>
</g>
<g>
	<path class="st3" d="M357.4,64.53V33.28h-11.81v-7.2h37.58v7.2h-11.81v71.85h11.81v7.2h-37.58v-7.2h11.81V73.03h-44.21v32.11h11.95
		v7.2h-37.87v-7.2h11.95V33.28h-11.95v-7.2h37.87v7.2h-11.95v31.25H357.4z"/>
	<path class="st3" d="M418.74,50.42c18.58,0,33.12,13.97,33.12,31.82c0,17.86-14.54,31.82-33.12,31.82
		c-18.58,0-33.12-13.97-33.12-31.82C385.62,64.39,400.17,50.42,418.74,50.42z M418.74,108.16c11.52,0,18.29-9.65,18.29-25.92
		c0-16.27-6.77-25.92-18.29-25.92c-11.38,0-18.29,9.65-18.29,25.92C400.46,98.51,407.37,108.16,418.74,108.16z"/>
	<path class="st3" d="M453.3,106.43h10.65V58.05H453.3v-5.9h23.9v6.91c9.22-4.9,16.13-8.64,23.76-8.64
		c6.91,0,12.53,3.74,14.83,10.08c6.19-4.75,16.13-10.08,24.19-10.08c11.23,0,17.28,7.2,17.28,20.16v35.86h10.51v5.9h-33.84v-5.9
		h10.08V74.47c0-10.37-3.6-15.26-11.09-15.26c-4.46,0-10.37,2.74-15.7,6.48v40.75h10.51v5.9h-33.84v-5.9h10.08v-30.1
		c0-10.22-1.44-17.14-10.8-17.14c-5.47,0-9.22,2.3-15.98,6.48v40.75h10.22v5.9H453.3V106.43z"/>
	<path class="st3" d="M580.89,77.49c0,17.28,7.92,29.38,20.73,29.38c6.19,0,12.82-2.3,20.02-6.91l-1.01,6.48
		c-9.79,6.05-14.4,7.63-22.61,7.63c-20.45,0-31.54-16.7-31.54-33.55c0-18.29,10.8-30.1,27.36-30.1c14.98,0,24.48,9.65,26.78,27.07
		H580.89z M606.52,71.59c-1.15-9.79-5.9-15.26-13.54-15.26c-7.92,0-11.23,5.04-12.1,15.26H606.52z"/>
	<path class="st3" d="M628.26,106.43h10.66V23.49h-10.66v-5.9h23.9v88.85h10.22v5.9h-34.13V106.43z"/>
	<path class="st3" d="M668.29,60.36c7.2-6.34,15.7-9.94,22.9-9.94c11.66,0,18.86,8.06,18.86,21.17v24.62c0,6.05,2.59,9.79,6.19,9.79
		c1.15,0,4.9-0.58,6.19-0.86v4.03c-4.46,3.17-8.93,4.9-13.11,4.9c-4.61,0-7.78-2.59-10.94-8.93c-7.2,5.33-12.38,8.93-17.57,8.93
		c-7.92,0-13.97-7.06-13.97-15.84c0-8.93,4.9-13.97,16.7-16.85l13.25-3.31V70c0-7.06-2.16-11.95-10.08-11.95
		c-4.61,0-9.79,2.02-16.99,6.48L668.29,60.36z M679.24,96.5c0,4.61,3.31,8.06,7.78,8.06c2.88,0,6.05-1.44,9.79-4.46V83.97
		C684.28,87,679.24,90.59,679.24,96.5z"/>
	<path class="st3" d="M723.44,106.43h10.95V58.05h-10.95v-5.9h24.19v6.77c7.06-5.18,14.26-8.5,22.32-8.5
		c9.5,0,16.56,6.05,16.56,17.57v38.45h10.65v5.9h-33.41v-5.9h9.5V71.01c0-8.21-4.46-12.53-10.66-12.53c-4.46,0-9.94,2.3-14.98,6.34
		v41.62h9.94v5.9h-34.13V106.43z"/>
	<path class="st3" d="M831.87,17.59h23.9v88.85h10.66v5.9h-34.56c-20.88,0-34.42-12.1-34.42-31.1c0-16.85,12.24-30.82,26.78-30.82
		c6.05,0,12.38,2.59,18.29,7.63V23.49h-10.66V17.59z M842.53,64.82c-4.46-4.46-9.5-6.77-14.11-6.77c-10.08,0-16.13,8.5-16.13,23.18
		c0,18.43,10.22,25.2,24.48,25.2h5.76V64.82z"/>
	<path class="st3" d="M291.88,191.22h7.2v10.94c5.76,6.91,11.38,9.94,17.42,9.94c8.06,0,14.4-6.05,14.4-13.82
		c0-14.54-20.02-17.42-31.68-29.09c-5.62-5.62-7.78-11.52-7.78-17.42c0-11.38,9.5-22.32,24.48-22.32c6.19,0,11.81,1.15,16.7,4.32
		v-4.61h7.2v23.47h-7.2v-9.36c-3.6-4.61-9.07-7.34-14.98-7.34c-9.65,0-13.82,5.76-13.82,12.38c0,13.54,19.73,15.55,32.11,27.94
		c5.47,5.47,7.34,10.37,7.34,17.42c0,14.69-10.37,24.91-25.92,24.91c-6.62,0-11.81-2.02-18.29-6.05v6.34h-7.2V191.22z"/>
	<path class="st3" d="M365.61,182.29c0,17.28,7.92,29.38,20.74,29.38c6.19,0,12.82-2.3,20.02-6.91l-1.01,6.48
		c-9.79,6.05-14.4,7.63-22.61,7.63c-20.45,0-31.54-16.7-31.54-33.55c0-18.29,10.8-30.1,27.36-30.1c14.98,0,24.48,9.65,26.78,27.07
		H365.61z M391.24,176.39c-1.15-9.79-5.9-15.26-13.54-15.26c-7.92,0-11.23,5.04-12.1,15.26H391.24z"/>
	<path class="st3" d="M460.79,174.23h-4.18c-1.58-8.78-7.92-13.1-14.4-13.1c-9.65,0-16.13,7.06-16.13,22.46
		c0,17.71,6.77,27.21,19.29,27.21c9.79,0,15.55-6.62,16.99-6.62c1.15,0,2.02,2.59,2.02,3.6c0,2.45-9.94,11.09-23.47,11.09
		c-16.85,0-29.66-14.4-29.66-33.26c0-17.71,11.95-30.38,28.8-30.38c5.04,0,8.78,0.86,15.41,3.74l1.15-3.6h4.18V174.23z"/>
	<path class="st3" d="M465.69,156.95h24.05v41.47c0,7.78,4.18,12.38,10.95,12.38c4.03,0,9.21-2.16,14.69-6.19v-41.76h-10.66v-5.9
		h23.9v54.29h10.8v5.9h-24.05v-7.2c-7.49,6.34-14.54,8.93-21.6,8.93c-10.66,0-17.28-6.05-17.28-18.43v-37.58h-10.8V156.95z"/>
	<path class="st3" d="M541.57,211.23h10.8v-48.38h-10.8v-5.9h24.05v10.08h0.29c7.2-8.93,10.8-11.81,14.69-11.81
		c3.6,0,6.77,1.73,10.22,5.76c-1.15,6.05-3.03,10.94-5.47,14.83c-3.46-6.34-5.47-8.5-9.5-8.5c-3.89,0-6.91,2.59-10.22,7.2v36.72
		h10.8v5.9h-34.85V211.23z"/>
	<path class="st3" d="M597.45,211.23h10.51v-48.38h-10.51v-5.9h23.76v54.29h10.22v5.9h-33.98V211.23z M621.49,135.64
		c0,4.46-3.74,8.21-8.21,8.21c-4.46,0-8.21-3.74-8.21-8.21c0-4.46,3.74-8.21,8.21-8.21C617.75,127.43,621.49,131.17,621.49,135.64z"
		/>
	<path class="st3" d="M637.76,162.85l21.6-22.32v16.41h16.85v5.9h-16.85v34.85c0,9.5,2.59,13.97,8.06,13.97
		c5.76,0,8.64-4.61,10.08-4.61c0.87,0,1.44,1.15,1.44,1.87c0,1.58-5.33,9.94-15.84,9.94c-10.95,0-16.99-7.06-16.99-20.02v-36H637.76
		z"/>
	<path class="st3" d="M679.09,156.95h29.23v5.9h-7.63l14.4,38.59l14.98-38.59h-7.06v-5.9h20.16v5.9h-7.2l-35.28,89.42h-11.23
		l16.99-37.73l-19.44-51.7h-7.92V156.95z"/>
</g>
</svg>
